<?xml version="1.0" standalone="no"?>
<!DOCTYPE svg PUBLIC "-//W3C//DTD SVG 1.1//EN" "http://www.w3.org/Graphics/SVG/1.1/DTD/svg11.dtd" >
<svg>
<metadata>
Created by FontForge 20120731 at Sun Jul  7 13:41:52 2019
 By www
</metadata>
<defs>
<font id="TechnotypW02-ExtraBold" horiz-adv-x="610" >
  <font-face 
    font-family="TechnotypW02-ExtraBold"
    font-weight="800"
    font-stretch="normal"
    units-per-em="1000"
    panose-1="0 0 9 0 0 0 0 0 0 0"
    ascent="766"
    descent="-234"
    x-height="455"
    cap-height="667"
    bbox="-130 -206 1251 914"
    underline-thickness="123"
    underline-position="5"
    unicode-range="U+0020-FB02"
  />
<missing-glyph horiz-adv-x="0" 
 />
    <glyph glyph-name=".notdef" horiz-adv-x="0" 
 />
    <glyph glyph-name="glyph1" horiz-adv-x="0" 
 />
    <glyph glyph-name="glyph2" horiz-adv-x="0" 
 />
    <glyph glyph-name="space" unicode=" " horiz-adv-x="250" 
 />
    <glyph glyph-name="exclam" unicode="!" horiz-adv-x="355" 
d="M190 168q20 0 38 -7t31.5 -18.5t21 -27.5t7.5 -34q0 -38 -28.5 -64t-69.5 -26q-21 0 -39 7t-31.5 19t-21 28.5t-7.5 34.5t7.5 34t21 28t31.5 19t39 7zM310 600q0 -17 -3.5 -55t-10 -90t-15 -114.5t-18.5 -127.5h-147q-6 54 -12.5 118t-11.5 121t-8.5 98t-3.5 50v67h230
v-67z" />
    <glyph glyph-name="quotedbl" unicode="&#x22;" horiz-adv-x="440" 
d="M166 399h-94l-18 268h138zM360 399h-94l-18 268h138z" />
    <glyph glyph-name="numbersign" unicode="#" horiz-adv-x="631" 
d="M278 397l-16 -114h86l18 114h-88zM562 397h-100l-16 -114h97l-10 -92h-101l-29 -191h-96l28 191h-88l-28 -191h-95l28 191h-92l10 92h97l17 114h-93l10 92h96l27 178h93l-25 -178h87l27 178h96l-27 -178h96z" />
    <glyph glyph-name="dollar" unicode="$" 
d="M380 434q0 20 -19.5 29t-62.5 9q-31 0 -42.5 -9t-11.5 -32t9.5 -31t36.5 -8h169q32 0 59.5 -19t40.5 -50q9 -21 12 -45.5t3 -70.5q0 -112 -28 -159.5t-93 -47.5h-119v-108h-85v108h-213v178h194q0 -23 18 -32.5t61 -9.5q34 0 45.5 9.5t11.5 36.5t-11.5 35t-48.5 8h-144
q-66 0 -96 45t-30 143q0 105 30 150.5t101 45.5h82v108h85v-108h218v-175h-172z" />
    <glyph glyph-name="percent" unicode="%" horiz-adv-x="906" 
d="M249 563q0 7 -2 15q-6 29 -29 29q-31 0 -31 -57v-135q0 -7 2 -15q6 -29 29 -29q31 0 31 57v135zM719 259q0 7 -2 15q-6 29 -29 29q-31 0 -31 -57v-135q0 -7 2 -15q6 -29 29 -29q31 0 31 57v135zM288 -26h-90l402 710h91zM50 538q0 41 8.5 69t28 45.5t52 25t79.5 7.5
t79.5 -7.5t52 -25t28 -45.5t8.5 -69v-98q0 -41 -8.5 -69.5t-28 -45.5t-52 -24.5t-79.5 -7.5t-79.5 7.5t-52 24.5t-28 45.5t-8.5 69.5v98zM520 234q0 41 8.5 69t28 45.5t52 25t79.5 7.5t79.5 -7.5t52 -25t28 -45.5t8.5 -69v-98q0 -41 -8.5 -69.5t-28 -45.5t-52 -24.5
t-79.5 -7.5t-79.5 7.5t-52 24.5t-28 45.5t-8.5 69.5v98z" />
    <glyph glyph-name="ampersand" unicode="&#x26;" horiz-adv-x="651" 
d="M270 254q-26 -20 -26 -46t18.5 -45t44.5 -19q14 0 23.5 5t21.5 17zM361 420q18 14 25 24.5t7 25.5q0 19 -13 33t-31 14q-14 0 -23.5 -10.5t-9.5 -24.5q0 -13 12.5 -30.5t32.5 -31.5zM450 0l-35 43q-41 -29 -80.5 -42t-84.5 -13q-43 0 -79.5 14.5t-63.5 39.5t-42 59.5
t-15 75.5q0 133 138 195q-21 29 -30.5 53t-9.5 50q0 69 53.5 105t154.5 36q88 0 138 -32t50 -89q0 -92 -111 -154l50 -51q18 23 28.5 37.5t20.5 28.5l94 -92q-32 -49 -83 -110h87v-154h-180z" />
    <glyph glyph-name="quotesingle" unicode="'" horiz-adv-x="246" 
d="M166 399h-94l-18 268h138z" />
    <glyph glyph-name="parenleft" unicode="(" horiz-adv-x="384" 
d="M304 -162q-35 21 -61 40t-47 38t-37.5 40t-32.5 46q-34 56 -50 124.5t-16 157.5q0 96 18.5 168t57.5 131q15 22 31 40.5t35.5 36t43.5 34.5t57 37l49 -64q-30 -25 -49.5 -50.5t-31.5 -58t-16.5 -75.5t-4.5 -103v-191q0 -60 4.5 -103.5t16.5 -76.5t31.5 -58.5t49.5 -50.5z
" />
    <glyph glyph-name="parenright" unicode=")" horiz-adv-x="384" 
d="M80 731q40 -24 70 -46.5t53 -46t40.5 -49.5t32.5 -57q25 -51 36.5 -111.5t11.5 -136.5q0 -95 -19 -167t-59 -131q-15 -23 -30.5 -41t-35 -35.5t-44 -34.5t-57.5 -37l-47 62q30 25 49.5 51t31 59t16.5 76.5t5 102.5v191q0 59 -4.5 102t-16.5 76t-31.5 58.5t-49.5 50.5z
" />
    <glyph glyph-name="asterisk" unicode="*" horiz-adv-x="432" 
d="M350 361q-26 14 -44.5 23.5t-39.5 20.5q-1 -18 -1.5 -29.5t-1.5 -21t-1.5 -19.5t-1.5 -24h-87q-2 27 -3 50.5t-2 44.5q-14 -7 -29 -16q-14 -7 -27 -14t-27 -15l-45 75q16 11 39 26.5t39 26.5l-78 53l45 75q15 -8 23.5 -12.5t16.5 -9t17.5 -9.5t25.5 -14q1 17 2 41t3 54
h87q2 -35 3.5 -57.5t2.5 -36.5q21 11 42.5 22t41.5 22l42 -76q-32 -22 -48.5 -33.5t-27.5 -18.5q10 -7 17 -12t14.5 -10t17.5 -12t27 -18z" />
    <glyph glyph-name="plus" unicode="+" horiz-adv-x="500" 
d="M306 249v-145h-114v145h-142v111h142v146h114v-146h144v-111h-144z" />
    <glyph glyph-name="comma" unicode="," horiz-adv-x="360" 
d="M149 -89h-124l99 277h191z" />
    <glyph glyph-name="hyphen" unicode="-" horiz-adv-x="380" 
d="M45 175v139h290v-139h-290z" />
    <glyph glyph-name="period" unicode="." horiz-adv-x="360" 
d="M190 208q22 0 42 -8.5t35 -23.5t23.5 -34.5t8.5 -41.5q0 -23 -8.5 -43t-23 -34.5t-34.5 -23t-43 -8.5t-42.5 8.5t-34 23t-23 34t-8.5 42.5q0 22 8.5 42t23 35t34 23.5t42.5 8.5z" />
    <glyph glyph-name="slash" unicode="/" horiz-adv-x="487" 
d="M150 -16h-135l312 683h135z" />
    <glyph glyph-name="zero" unicode="0" 
d="M350 363q0 11 -0.5 29t-1.5 26l-1 8q-2 33 -10.5 45t-31.5 12q-22 0 -31 -12.5t-11 -44.5q0 -4 -1 -8v-8l-1 -11l-1 -36v-120q0 -11 0.5 -29t1.5 -26l1 -8q2 -33 10.5 -45t31.5 -12q22 0 31 12.5t11 44.5q0 4 1 8v4l1 15l1 36v120zM36 365q0 46 2 69.5t7 45.5
q9 36 28.5 62t51 42.5t76.5 24.5t105 8q104 0 161.5 -23.5t83.5 -76.5q7 -14 11.5 -27.5t7 -31t3.5 -40t1 -53.5v-124q0 -23 -0.5 -40t-1.5 -30t-2.5 -23.5t-4.5 -21.5q-9 -36 -28.5 -62t-51 -42.5t-76.5 -24.5t-105 -8q-104 0 -162 23.5t-83 76.5q-7 13 -11.5 27t-7 31.5
t-3.5 40t-1 53.5v124z" />
    <glyph glyph-name="one" unicode="1" 
d="M185 0v134h60v252l-82 -78l-88 126l184 175h210v-475h42v-134h-326z" />
    <glyph glyph-name="two" unicode="2" 
d="M40 0v147q0 121 109 171q22 10 52.5 21t59.5 19q45 13 63 28.5t18 42.5q0 23 -14.5 38.5t-36.5 15.5q-28 0 -43.5 -23.5t-17.5 -68.5h-190v181q84 24 148 34.5t127 10.5q72 0 124.5 -13t80.5 -37q23 -20 33.5 -55.5t10.5 -95.5q0 -56 -14.5 -89.5t-46.5 -54.5
q-17 -11 -43.5 -21t-71.5 -22q-60 -17 -86.5 -34t-26.5 -40v-21h45q15 0 24.5 1.5t15 7.5t8.5 17.5t6 30.5h190v-191h-524z" />
    <glyph glyph-name="three" unicode="3" 
d="M45 580q68 19 130 28t133 9q74 0 122.5 -10t78.5 -32q29 -20 40.5 -52t11.5 -90q0 -23 -1.5 -39.5t-6 -29t-12.5 -23.5t-21 -24q16 -11 26 -22t16 -26t8 -36t2 -51q0 -51 -5.5 -77t-21.5 -46q-29 -37 -81.5 -53.5t-140.5 -16.5q-93 0 -160.5 11t-125.5 37v179h186v-19
q0 -43 12.5 -58.5t45.5 -15.5q37 0 52 14t15 49q0 29 -15.5 40.5t-56.5 11.5h-25v125q31 0 42.5 1t19.5 4q24 11 24 58q0 30 -11 43.5t-36 13.5q-34 0 -46 -16.5t-13 -62.5v-19h-186v195z" />
    <glyph glyph-name="four" unicode="4" 
d="M295 476l-89 -153h89v153zM245 0v134h43v53h-258v135l158 287h324v-286h46v-136h-46v-53h46v-134h-313z" />
    <glyph glyph-name="five" unicode="5" 
d="M263 368q29 19 59.5 26.5t78.5 7.5q47 0 82.5 -14t56.5 -41q16 -21 23 -50t7 -74q0 -95 -25 -144q-11 -24 -31.5 -38.5t-58.5 -27.5q-35 -11 -78 -17.5t-86 -6.5q-63 0 -121.5 11.5t-130.5 38.5v146h179q3 -62 67 -62q61 0 61 69q0 32 -17 48.5t-49 16.5q-28 0 -44 -10.5
t-18 -30.5h-179v393h513v-170h-196l-15 36h-78v-107z" />
    <glyph glyph-name="six" unicode="6" 
d="M346 206q0 24 -9.5 34t-32.5 10t-32.5 -10.5t-9.5 -35.5v-15l1 -7v-8q0 -29 9 -40t32 -11q25 0 33.5 9t8.5 35v39zM263 348q24 20 51.5 28t67.5 8q47 0 86 -10.5t59 -27.5q23 -20 33 -51t10 -82q0 -74 -19.5 -120.5t-60.5 -70.5q-30 -17 -76.5 -25t-115.5 -8
q-81 0 -129.5 14.5t-78.5 48.5q-51 55 -51 179v140q0 73 12.5 114.5t43.5 67.5q15 13 40.5 24.5t56.5 20.5t65.5 14t66.5 5q52 0 107.5 -8t112.5 -25v-174h-190v9q0 2 1 8v17q0 22 -10.5 30.5t-36.5 8.5q-28 0 -36.5 -9.5t-8.5 -41.5v-84z" />
    <glyph glyph-name="seven" unicode="7" 
d="M401 134h77v-134h-411v134h72l184 341h-69l-50 -94h-162v228h534v-151z" />
    <glyph glyph-name="eight" unicode="8" 
d="M304 239q-24 0 -34.5 -13t-10.5 -43q0 -32 10.5 -46t34.5 -14q26 0 36 14t10 49q0 53 -46 53zM304 483q-20 0 -28 -13t-8 -45q0 -29 8 -40t28 -11t28.5 11.5t8.5 37.5q0 32 -8.5 46t-28.5 14zM522 311q29 -30 40.5 -58t11.5 -70q0 -100 -65.5 -147t-203.5 -47
q-140 0 -205 47t-65 149q0 41 11.5 69t40.5 57q-25 30 -34.5 55.5t-9.5 60.5q0 100 62 145t200 45q134 0 197.5 -46t63.5 -144q0 -35 -9.5 -60.5t-34.5 -55.5z" />
    <glyph glyph-name="nine" unicode="9" 
d="M346 433q0 28 -9 39t-32 11q-24 0 -33 -10t-9 -37v-27q0 -25 8.5 -33.5t33.5 -8.5q23 0 32 9t9 33v24zM346 269q-24 -20 -51.5 -28t-67.5 -8q-42 0 -78.5 8.5t-58.5 23.5q-26 18 -38.5 48t-12.5 78q0 75 19 122t61 71q29 17 76 25t116 8q81 0 129.5 -14.5t78.5 -48.5
q51 -55 51 -179v-140q0 -73 -12.5 -114.5t-43.5 -67.5q-15 -13 -40.5 -24.5t-56.5 -20.5t-65.5 -14t-66.5 -5q-52 0 -107.5 8t-112.5 25v174h190v-38q0 -6 2 -12q7 -23 45 -23q27 0 35.5 9.5t8.5 41.5v95z" />
    <glyph glyph-name="colon" unicode=":" horiz-adv-x="376" 
d="M207 208q22 0 42 -8.5t35 -23.5t23.5 -34.5t8.5 -41.5q0 -23 -8.5 -43t-23 -34.5t-34.5 -23t-43 -8.5t-42.5 8.5t-34 23t-23 34t-8.5 42.5q0 22 8.5 42t23 35t34 23.5t42.5 8.5zM207 465q22 0 42 -8.5t35 -23.5t23.5 -34.5t8.5 -41.5q0 -23 -8.5 -43t-23 -34.5t-34.5 -23
t-43 -8.5t-42.5 8.5t-34 23t-23 34t-8.5 42.5q0 22 8.5 42t23 35t34 23.5t42.5 8.5z" />
    <glyph glyph-name="semicolon" unicode=";" horiz-adv-x="418" 
d="M179 -89h-124l99 277h191zM249 465q22 0 42 -8.5t35 -23.5t23.5 -34.5t8.5 -41.5q0 -23 -8.5 -43t-23 -34.5t-34.5 -23t-43 -8.5t-42.5 8.5t-34 23t-23 34t-8.5 42.5q0 22 8.5 42t23 35t34 23.5t42.5 8.5z" />
    <glyph glyph-name="less" unicode="&#x3c;" horiz-adv-x="525" 
d="M50 260v59l425 275v-139l-254 -165l254 -165v-139z" />
    <glyph glyph-name="equal" unicode="=" horiz-adv-x="525" 
d="M50 150v113h425v-113h-425zM50 347v113h425v-113h-425z" />
    <glyph glyph-name="greater" unicode="&#x3e;" horiz-adv-x="525" 
d="M50 -14v139l254 165l-254 165v139l425 -275v-59z" />
    <glyph glyph-name="question" unicode="?" horiz-adv-x="387" 
d="M191 168q22 0 41.5 -7t33.5 -19t22.5 -28t8.5 -34t-8.5 -34.5t-22.5 -28.5t-33.5 -19t-41.5 -7t-41 7t-33.5 19t-22.5 28.5t-8 34.5t8 34t22.5 28t33.5 19t41 7zM35 651q40 18 75.5 26t74.5 8q82 0 118 -32q35 -28 50.5 -66.5t15.5 -94.5q0 -34 -3 -58t-12 -43.5t-25 -37
t-41 -39.5v-107h-202v143q38 13 60 38t22 55q0 55 -54 55q-31 0 -79 -19v172z" />
    <glyph glyph-name="at" unicode="@" horiz-adv-x="839" 
d="M366 224q0 -78 43 -78q22 0 31.5 13t9.5 43v62q-1 15 -1 24v14q0 30 -0.5 37.5t-3.5 13.5q-9 14 -32 14q-47 0 -47 -83v-60zM541 -88q-29 -11 -57 -16.5t-60 -5.5q-77 0 -145 29.5t-119 80.5t-80.5 119t-29.5 145q0 79 30 147t82 118.5t123 79.5t152 29q74 0 138 -26
t111.5 -71t75 -106.5t27.5 -132.5q0 -42 -11.5 -85t-32.5 -81q-49 -85 -126 -85q-74 0 -111 59q-43 -58 -112 -58q-82 0 -128 52.5t-46 146.5q0 97 36 148q20 29 50 45.5t62 16.5q49 0 78 -43v30h173v-82h-33v-219q0 -26 32 -26q22 0 40 13t31 36t20.5 54.5t7.5 69.5
q0 58 -22 108t-60 87t-90 58t-112 21q-65 0 -122.5 -24t-100 -65.5t-67.5 -96.5t-25 -118q0 -62 24.5 -117t66 -97t96.5 -66.5t116 -24.5q27 0 53.5 5.5t64.5 19.5v-72z" />
    <glyph glyph-name="A" unicode="A" horiz-adv-x="659" 
d="M298 517h-19l-33 -156h85zM329 0v150h48l-15 68h-147l-15 -68h47v-150h-240v150h38l79 367h-72v150h441l119 -517h40v-150h-323z" />
    <glyph glyph-name="B" unicode="B" horiz-adv-x="700" 
d="M369 150q38 0 50.5 10t12.5 39v16q0 28 -12.5 38t-47.5 10h-66v-113h63zM368 413q25 0 34 9.5t9 35.5v11q0 26 -10 37t-33 11h-62v-104h62zM478 667q83 0 122 -41.5t39 -129.5q0 -74 -25.5 -110.5t-85.5 -47.5q71 -11 101.5 -47.5t30.5 -111.5q0 -84 -38.5 -131.5
t-106.5 -47.5h-479v150h42v367h-42v150h442z" />
    <glyph glyph-name="C" unicode="C" horiz-adv-x="587" 
d="M262 0q-102 0 -160 54t-58 148v263q0 94 58 148t160 54h288v-253h-184v45q0 32 -10.5 45t-36.5 13t-36.5 -13t-10.5 -45v-251q0 -32 10.5 -45t36.5 -13t36.5 13t10.5 45v70h184v-278h-288z" />
    <glyph glyph-name="D" unicode="D" horiz-adv-x="684" 
d="M338 150q42 0 58 19t16 69v191q0 50 -16 69t-58 19h-32v-367h32zM452 667q121 0 164 -110q13 -35 18.5 -86t5.5 -135q0 -39 -1 -68.5t-3 -53t-5 -42.5t-8 -37q-36 -135 -171 -135h-416v150h42v367h-42v150h416z" />
    <glyph glyph-name="E" unicode="E" horiz-adv-x="619" 
d="M36 0v150h42v367h-42v150h551v-200h-197v50h-84v-104h196v-150h-196v-113h84v73h197v-223h-551z" />
    <glyph glyph-name="F" unicode="F" horiz-adv-x="592" 
d="M380 467v50h-74v-104h203v-150h-203v-113h42v-150h-312v150h42v367h-42v150h541v-200h-197z" />
    <glyph glyph-name="G" unicode="G" horiz-adv-x="627" 
d="M222 0q-84 0 -126 51.5t-48 160.5q-2 31 -3 65.5t-1 57.5q0 29 0.5 62.5t2.5 57.5q6 109 48 160.5t126 51.5h369v-248h-197v31q0 38 -13 52.5t-47 14.5t-47.5 -13t-13.5 -45v-251q0 -32 13.5 -45t47.5 -13t47 12t13 44h-42v154h239v-360h-368z" />
    <glyph glyph-name="H" unicode="H" horiz-adv-x="739" 
d="M398 0v150h42v113h-134v-113h35v-150h-305v150h42v367h-42v150h305v-150h-35v-104h134v104h-42v150h305v-150h-35v-367h35v-150h-305z" />
    <glyph glyph-name="I" unicode="I" horiz-adv-x="384" 
d="M36 0v150h42v367h-42v150h312v-150h-42v-367h42v-150h-312z" />
    <glyph glyph-name="J" unicode="J" horiz-adv-x="353" 
d="M317 111q0 -52 -12.5 -89t-39 -60t-68 -34t-100.5 -11h-87v150q24 3 39 9t24 16.5t12.5 27t3.5 40.5v357h-42v150h270v-556z" />
    <glyph glyph-name="K" unicode="K" horiz-adv-x="686" 
d="M398 0v230q0 23 -10.5 31.5t-37.5 8.5h-44v-120h35v-150h-305v150h42v367h-42v150h305v-150h-35v-97h39l95 247h214v-150h-48l-39 -106q31 -15 45 -36t14 -53v-172h42v-150h-270z" />
    <glyph glyph-name="L" unicode="L" horiz-adv-x="615" 
d="M36 0v150h42v367h-42v150h305v-150h-35v-367h86v133h197v-283h-553z" />
    <glyph glyph-name="M" unicode="M" horiz-adv-x="894" 
d="M546 0v150h42v248l-129 -398h-108l-129 398v-248h42v-150h-234v150h42v367h-42v150h329l89 -276l90 276h320v-150h-42v-367h42v-150h-312z" />
    <glyph glyph-name="N" unicode="N" horiz-adv-x="737" 
d="M665 517v-517h-260l-183 373v-223h42v-150h-234v150h42v367h-42v150h296l189 -385v235h-42v150h234v-150h-42z" />
    <glyph glyph-name="O" unicode="O" horiz-adv-x="651" 
d="M379 452q0 44 -12.5 63.5t-40.5 19.5t-40.5 -19t-12.5 -61v-240q0 -42 12 -61t40 -19q29 0 41.5 19t12.5 63v235zM44 418q0 46 2.5 74.5t9.5 51.5q20 74 84.5 107.5t186.5 33.5q106 0 165.5 -24t87.5 -78q7 -14 12.5 -30t8.5 -35.5t4.5 -44t1.5 -55.5v-166
q0 -45 -2.5 -73.5t-9.5 -52.5q-20 -74 -83.5 -107.5t-185.5 -33.5q-107 0 -167 24t-88 78q-15 28 -21 65t-6 100v166z" />
    <glyph glyph-name="P" unicode="P" horiz-adv-x="651" 
d="M350 370q26 0 37.5 17.5t11.5 56.5q0 38 -11.5 55.5t-37.5 17.5h-44v-147h44zM502 667q66 0 95.5 -53t29.5 -172q0 -117 -29.5 -169.5t-95.5 -52.5h-196v-70h42v-150h-312v150h42v367h-42v150h466z" />
    <glyph glyph-name="Q" unicode="Q" horiz-adv-x="651" 
d="M379 452q0 44 -12.5 63.5t-40.5 19.5t-40.5 -19t-12.5 -61v-240q0 -42 12 -61t40 -19q29 0 41.5 19t12.5 63v235zM452 -100v17q0 28 -3.5 43t-14.5 33q-27 -5 -52.5 -6.5t-57.5 -1.5q-105 0 -165 24t-88 78q-15 28 -21 65t-6 100v166q0 46 2.5 74t9.5 52q20 74 84 107.5
t186 33.5q106 0 166 -24t88 -78q7 -14 12.5 -30t8.5 -35.5t4.5 -44t1.5 -55.5v-166q0 -38 -2 -66.5t-7 -50.5t-13.5 -39.5t-21.5 -35.5q23 -5 37.5 -23.5t12.5 -39.5h29v-97h-190z" />
    <glyph glyph-name="R" unicode="R" horiz-adv-x="681" 
d="M343 413q29 0 40 11.5t11 40.5t-11 40.5t-40 11.5h-40v-104h40zM394 0v233q0 16 -12 23t-39 7h-40v-113h34v-150h-301v150h39v367h-39v150h459q66 0 96.5 -41t30.5 -129q0 -71 -20 -107.5t-68 -56.5q25 -8 42 -19t27.5 -28t14.5 -41.5t4 -60.5v-34h41v-150h-269z" />
    <glyph glyph-name="S" unicode="S" horiz-adv-x="597" 
d="M358 475q0 23 -11.5 32.5t-38.5 9.5q-50 0 -50 -44t50 -44h136q31 0 58.5 -16.5t43.5 -43.5q13 -22 18.5 -54t5.5 -84v-18q0 -112 -32 -162.5t-101 -50.5h-407v195h212q0 -45 50 -45t50 48t-50 48h-124q-36 0 -65 15t-46 44q-15 24 -21 55.5t-6 82.5q0 55 4.5 90t15.5 60
q33 74 124 74h372v-192h-188z" />
    <glyph glyph-name="T" unicode="T" horiz-adv-x="684" 
d="M513 419v98h-57v-367h60v-150h-348v150h60v367h-57v-98h-150v248h642v-248h-150z" />
    <glyph glyph-name="U" unicode="U" horiz-adv-x="731" 
d="M659 516v-361q0 -170 -297 -170q-142 0 -214 42.5t-72 127.5v361h-42v151h305v-151h-35v-323q0 -34 13 -46t50 -12q38 0 51 13t13 51v317h-35v151h305v-151h-42z" />
    <glyph glyph-name="V" unicode="V" horiz-adv-x="626" 
d="M619 517h-44l-177 -517h-192l-156 517h-43v150h314v-150h-35l60 -199l68 199h-36v150h241v-150z" />
    <glyph glyph-name="W" unicode="W" horiz-adv-x="893" 
d="M844 517l-154 -517h-214l-43 201l-60 -201h-214l-110 517h-42v150h259v-150l45 -214l65 214h-52v150h311v-150h-52l45 -214l64 214v150h194v-150h-42z" />
    <glyph glyph-name="X" unicode="X" horiz-adv-x="618" 
d="M304 0v133l-58 94l-5 -15q-3 -9 -13 -36l-8 -21q-2 -7 -3.5 -11.5t-2.5 -6.5t-2 -5v-132h-202v150h48l87 242l-76 125h-38v150h305v-150l47 -77q7 19 13.5 38.5t14.5 39.5v149h197v-150h-37l-87 -242l77 -125h47v-150h-304z" />
    <glyph glyph-name="Y" unicode="Y" horiz-adv-x="589" 
d="M536 517l-127 -288v-79h69v-150h-366v150h69v79l-128 288h-46v150h290v-150l38 -86l38 86v150h209v-150h-46z" />
    <glyph glyph-name="Z" unicode="Z" horiz-adv-x="616" 
d="M25 0v143l279 374h-115v-87h-164v237h566v-142l-281 -375h117v87h164v-237h-566z" />
    <glyph glyph-name="bracketleft" unicode="[" horiz-adv-x="434" 
d="M267 579v-632h93v-107h-276v845h285v-106h-102z" />
    <glyph glyph-name="backslash" unicode="\" horiz-adv-x="487" 
d="M337 -16l-312 683h135l312 -683h-135z" />
    <glyph glyph-name="bracketright" unicode="]" horiz-adv-x="434" 
d="M74 -160v107h93v632h-102v106h285v-845h-276z" />
    <glyph glyph-name="asciicircum" unicode="^" 
d="M429 351l-108 183l-107 -183h-171l197 326h128l199 -326h-138z" />
    <glyph glyph-name="underscore" unicode="_" horiz-adv-x="500" 
d="M0 -178v123h500v-123h-500z" />
    <glyph glyph-name="grave" unicode="`" horiz-adv-x="500" 
d="M265 517l-109 150h128l71 -150h-90z" />
    <glyph glyph-name="a" unicode="a" horiz-adv-x="579" 
d="M321 176q-11 7 -22.5 9.5t-27.5 2.5q-23 0 -35.5 -10.5t-12.5 -28.5q0 -20 13.5 -32t36.5 -12q13 0 23 2.5t25 9.5v59zM321 0v32q-50 -25 -82.5 -34.5t-67.5 -9.5q-29 0 -56 8q-18 5 -34 18.5t-27.5 32.5t-18.5 42t-7 47q0 32 12.5 58.5t35 46t54 30t69.5 10.5
q59 0 122 -21v56q0 32 -37 32q-34 0 -38 -36h-162v121q24 9 48.5 16t51 11t57 6t66.5 2q107 0 162.5 -34.5t55.5 -100.5v-201h40v-132h-244z" />
    <glyph glyph-name="b" unicode="b" horiz-adv-x="578" 
d="M343 271q0 35 -10 49.5t-35 14.5q-40 0 -40 -50v-119q0 -26 9.5 -37t32.5 -11q20 0 31.5 13.5t11.5 37.5v102zM258 424q29 26 53.5 34.5t63.5 8.5q88 0 137 -67q10 -14 16.5 -28t10.5 -32t6 -40.5t2 -53.5v-21q1 -9 1 -17v-16q0 -44 -6 -71q-9 -36 -26.5 -61.5t-47 -41
t-71.5 -23t-99 -7.5q-95 0 -148 22t-76 71q-6 13 -10 25t-6.5 28.5t-3 38.5t-0.5 55v307h-40v132h244v-243z" />
    <glyph glyph-name="c" unicode="c" horiz-adv-x="491" 
d="M464 0h-268q-78 0 -118 37q-21 20 -34 50.5t-13 62.5v137q0 47 9.5 76t32.5 49q26 24 56 33.5t78 9.5h258v-187h-152q0 32 -8.5 43.5t-29.5 11.5q-17 0 -28.5 -10t-11.5 -25v-111q0 -45 39 -45q23 0 31 11.5t8 43.5h152z" />
    <glyph glyph-name="d" unicode="d" horiz-adv-x="595" 
d="M320 285q0 50 -40 50q-25 0 -35 -14.5t-10 -49.5v-102q0 -24 11.5 -37.5t31.5 -13.5q23 0 32.5 11t9.5 37v119zM320 0v33q-14 -14 -26 -22.5t-25 -13.5t-28 -7t-34 -2q-92 0 -141 70q-19 27 -27 57.5t-8 77.5v60q0 57 9 92t31 62q49 60 129 60q21 0 36.5 -2t29 -7
t26.5 -13t28 -21v111h-40v132h244v-535h40v-132h-244z" />
    <glyph glyph-name="e" unicode="e" horiz-adv-x="551" 
d="M329 318q0 16 -14 26t-36 10q-21 0 -35 -10t-14 -26v-32h99v32zM525 35q-27 -13 -53 -22t-55.5 -14.5t-63.5 -8t-76 -2.5q-100 0 -153.5 22t-78.5 73q-11 23 -15 48.5t-4 67.5v58q0 27 1.5 45.5t5.5 34.5q16 69 73.5 99.5t169.5 30.5q98 0 152 -22.5t78 -73.5
q11 -22 15 -47.5t4 -68.5v-52h-295v-46q0 -16 14.5 -26.5t37.5 -10.5q45 0 47 38h196v-123z" />
    <glyph glyph-name="f" unicode="f" horiz-adv-x="357" 
d="M272 323v-191h40v-132h-284v132h40v191h-40v132h40v10q0 33 3 53q7 45 20.5 77t36 52t54.5 29t76 9q25 0 43 -2.5t35 -9.5v-132q-11 4 -19 4q-21 0 -33 -14t-12 -40v-36h64v-132h-64z" />
    <glyph glyph-name="g" unicode="g" horiz-adv-x="574" 
d="M309 287q0 26 -8.5 37t-28.5 11q-15 0 -26 -10.5t-11 -24.5v-57q0 -19 9.5 -30t24.5 -11q21 0 30.5 11t9.5 37v37zM513 323v-231q0 -56 -16 -101t-48 -77q-67 -67 -210 -67q-52 0 -103 10.5t-105 31.5l49 118q36 -14 75 -22t68 -8q81 0 84 118q-41 -14 -64.5 -19.5
t-48.5 -5.5q-163 0 -163 186v31q0 88 41 134t119 46q34 0 60 -10t58 -35v33h244v-132h-40z" />
    <glyph glyph-name="h" unicode="h" horiz-adv-x="625" 
d="M363 0v289q0 21 -11.5 33.5t-31.5 12.5q-21 0 -35 -13t-14 -33v-157h35v-132h-280v132h41v403h-41v132h245v-259q26 32 58 45.5t85 13.5q74 0 113.5 -37.5t39.5 -107.5v-191h41v-131h-245z" />
    <glyph glyph-name="i" unicode="i" horiz-adv-x="327" 
d="M26 0v132h40v191h-40v132h244v-323h40v-132h-284zM168 667q21 0 39 -7t32 -19t22 -28.5t8 -34.5q0 -19 -8 -36t-21.5 -29.5t-32 -19.5t-39.5 -7t-39.5 7t-32 19.5t-21 29t-7.5 35.5q0 38 29 64t71 26z" />
    <glyph glyph-name="j" unicode="j" horiz-adv-x="317" 
d="M275 -7q0 -32 -11 -59t-31 -46.5t-47.5 -30t-60.5 -10.5q-20 0 -45 4t-60 13v127q32 2 42 9.5t10 27.5v8q0 5 -1 16v271h-40v132h244v-462zM172 667q21 0 39 -7t32 -19t22 -28.5t8 -34.5q0 -19 -8 -36t-21.5 -29.5t-32 -19.5t-39.5 -7t-39.5 7t-32 19.5t-21 29t-7.5 35.5
q0 38 29 64t71 26z" />
    <glyph glyph-name="k" unicode="k" horiz-adv-x="613" 
d="M366 0v147q0 24 -12.5 31t-53.5 7h-30v-53h36v-132h-280v132h40v403h-40v132h244v-345h71l25 22v111h205v-132l-74 -61q25 -12 39.5 -22.5t22 -24t9.5 -33t2 -50.5h20v-132h-224z" />
    <glyph glyph-name="l" unicode="l" horiz-adv-x="332" 
d="M26 0v132h41v403h-41v132h245v-535h35v-132h-280z" />
    <glyph glyph-name="m" unicode="m" horiz-adv-x="921" 
d="M659 0v289q0 21 -11.5 33.5t-31.5 12.5q-21 0 -35 -13t-14 -33v-157h35v-132h-239v289q0 21 -11.5 33.5t-31.5 12.5q-21 0 -35 -13t-14 -33v-157h35v-132h-280v132h41v191h-41v132h245v-47q26 32 58.5 45.5t84.5 13.5q49 0 80.5 -14.5t54.5 -46.5q35 32 72.5 46.5
t90.5 14.5q72 0 111.5 -38t39.5 -107v-191h41v-131h-245z" />
    <glyph glyph-name="n" unicode="n" horiz-adv-x="625" 
d="M363 0v289q0 21 -11.5 33.5t-31.5 12.5q-21 0 -35 -13t-14 -33v-157h35v-132h-280v132h41v191h-41v132h245v-47q26 32 58 45.5t85 13.5q74 0 113.5 -37.5t39.5 -107.5v-191h41v-131h-245z" />
    <glyph glyph-name="o" unicode="o" horiz-adv-x="560" 
d="M324 268q0 36 -10 52t-33 16q-43 0 -43 -61v-94q0 -61 42 -61q23 0 33.5 16t10.5 52v80zM528 196q0 -58 -13 -98t-42.5 -64.5t-77 -35t-117.5 -10.5q-95 0 -148.5 22t-76.5 72q-6 13 -9.5 25t-6 28.5t-3 38.5t-0.5 54v32q0 58 13 97.5t42 64t76 35.5t116 11
q111 0 167 -29.5t72 -96.5q3 -11 4.5 -20.5t2 -21.5t1 -29t0.5 -43v-32z" />
    <glyph glyph-name="p" unicode="p" horiz-adv-x="592" 
d="M355 286q0 24 -11.5 37.5t-31.5 13.5q-23 0 -32.5 -11t-9.5 -37v-119q0 -50 40 -50q25 0 35 14.5t10 49.5v102zM270 422q14 13 26 22t25 14t27.5 7t34.5 2q92 0 141 -70q20 -27 27.5 -57.5t7.5 -77.5v-60q0 -57 -9 -92t-31 -62q-24 -29 -56.5 -44.5t-70.5 -15.5
q-21 0 -37 2t-29.5 6.5t-26.5 13t-29 21.5v-184h-244v132h40v344h-40v132h244v-33z" />
    <glyph glyph-name="q" unicode="q" horiz-adv-x="592" 
d="M322 289q0 26 -9.5 37t-32.5 11q-20 0 -31.5 -13.5t-11.5 -37.5v-102q0 -35 10 -49.5t35 -14.5q40 0 40 50v119zM322 -153v184q-15 -13 -28 -21t-26.5 -13t-28.5 -7t-34 -2q-73 0 -120 47q-29 28 -40.5 66t-11.5 101v60q0 42 6 69.5t21 53.5q24 40 61 61t85 21
q21 0 36.5 -2t28.5 -7t25 -14t26 -22v33h244v-132h-40v-344h40v-132h-244z" />
    <glyph glyph-name="r" unicode="r" horiz-adv-x="416" 
d="M396 298q-28 18 -67 18q-63 0 -63 -65v-119h40v-132h-279l-1 132h40v191h-40v132h240v-66q13 43 30 61t46 18q26 0 54 -16v-154z" />
    <glyph glyph-name="s" unicode="s" horiz-adv-x="525" 
d="M329 301q-2 17 -12.5 24t-35.5 7q-45 0 -45 -28q0 -26 32 -26h70q48 0 79 -6t49.5 -21.5t26 -41t7.5 -64.5q0 -42 -7.5 -70t-26.5 -44.5t-50 -23.5t-77 -7h-307v154h152q3 -19 13 -25t41 -6q32 0 45 6.5t13 22.5q0 26 -60 26h-15q-6 0 -19 -1h-13q-45 0 -75 7t-48 24
t-26 44t-8 68q0 39 7.5 65t26 41.5t50 22t78.5 6.5h285v-154h-150z" />
    <glyph glyph-name="t" unicode="t" horiz-adv-x="346" 
d="M320 4q-23 -8 -55.5 -12t-70.5 -4q-67 0 -102 36t-35 105v194h-40v132h40v113h204v-113h59v-132h-59v-121q0 -33 13.5 -47.5t45.5 -14.5v-136z" />
    <glyph glyph-name="u" unicode="u" horiz-adv-x="625" 
d="M354 0v47q-26 -32 -58.5 -45.5t-84.5 -13.5q-74 0 -113.5 37.5t-39.5 107.5v190h-41v132h245v-289q0 -21 11.5 -33.5t31.5 -12.5q21 0 35 13t14 33v157h-35v132h239v-326h41v-129h-245z" />
    <glyph glyph-name="v" unicode="v" horiz-adv-x="514" 
d="M477 323l-95 -323h-252l-95 323h-28v132h242v-131l45 -152l44 152v131h169v-132h-30z" />
    <glyph glyph-name="w" unicode="w" horiz-adv-x="812" 
d="M775 324l-102 -324h-205l-59 190l-60 -190h-205l-101 323h-36v132h251v-132l36 -119l38 120v131h229v-131l38 -121l37 121v131h169v-131h-30z" />
    <glyph glyph-name="x" unicode="x" horiz-adv-x="559" 
d="M243 0v132l-35 36l-21 -36v-132h-173v132h23l71 122l-67 69h-34v132h307v-132l35 -38l20 38v132h182v-132h-30l-71 -123l68 -71h33l1 -129h-309z" />
    <glyph glyph-name="y" unicode="y" horiz-adv-x="540" 
d="M502 323l-130 -274h-1v-70h45v-132h-294v132h45v72l-129 272h-31v132h253v-132l47 -99l47 99v132h179v-132h-31z" />
    <glyph glyph-name="z" unicode="z" horiz-adv-x="497" 
d="M24 0v130l189 193h-64l-28 -43h-97v175h449v-132l-187 -191h62l28 43h97v-175h-449z" />
    <glyph glyph-name="braceleft" unicode="{" horiz-adv-x="448" 
d="M336 -161h-17q-53 0 -89 9t-58.5 30t-32.5 54.5t-10 82.5q0 10 0.5 53t1.5 114q1 16 -1.5 26t-11 15.5t-23.5 8t-40 2.5v83q26 1 41 3t23 6.5t10 13.5t2 24q0 7 -0.5 36t-1.5 81v34q0 48 10 81t33.5 53.5t61 29t93.5 7.5l77 -1v-106h-33q-39 0 -52.5 -19.5t-13.5 -74.5
v-19q0 -10 1 -21v-36q0 -33 -4 -56t-13 -38.5t-24 -24t-38 -13.5q44 -13 62 -39.5t18 -80.5v-10q0 -5 -1 -13v-96q0 -28 4 -46t14.5 -28t30 -14t49.5 -5v-105z" />
    <glyph glyph-name="bar" unicode="|" 
d="M225 -130v797h160v-797h-160z" />
    <glyph glyph-name="braceright" unicode="}" horiz-adv-x="448" 
d="M393 234q-25 0 -40 -2t-23 -7t-10.5 -14.5t-2.5 -25.5l2 -132v-37q0 -49 -10 -83t-32.5 -55t-58.5 -30t-89 -9h-17l-68 1v105q30 1 49.5 5t30 14t14.5 28t4 46v88q0 6 -1 18v10q0 56 17.5 83t62.5 40q-23 5 -38 14t-24 24t-13 37.5t-4 54.5v17q0 10 1 21v38q0 29 -3 47.5
t-10.5 29.5t-20 15t-32.5 4h-33v106l77 1q55 1 93 -7.5t61.5 -28.5t33.5 -53t10 -81q0 -4 -0.5 -33t-1.5 -85v-32q0 -16 2 -25t9.5 -14t23 -7t41.5 -3v-83z" />
    <glyph glyph-name="asciitilde" unicode="~" 
d="M572 654q-18 -26 -29.5 -41.5t-18.5 -25t-11.5 -15.5t-10.5 -12q-50 -53 -111 -53q-20 0 -40.5 5t-56.5 19q-37 14 -56.5 18.5t-38.5 4.5q-20 0 -38 -17t-39 -56l-84 58q7 8 11.5 14t13.5 17q23 30 36 45t26 26q50 44 107 44q18 0 36 -4.5t50 -16.5q31 -12 48.5 -16.5
t35.5 -4.5q22 0 33.5 5.5t28.5 25.5q7 8 15 15.5t19 18.5z" />
    <glyph glyph-name="uni00A0" unicode="&#xa0;" horiz-adv-x="250" 
 />
    <glyph glyph-name="exclamdown" unicode="&#xa1;" horiz-adv-x="355" 
d="M80 -157v67q0 16 3.5 54.5t10 90.5t15 114.5t18.5 127.5h147q6 -54 12.5 -118t11.5 -121t8.5 -98t3.5 -50v-67h-230zM201 519q20 0 38 -7t31.5 -18.5t21 -27.5t7.5 -34q0 -38 -28 -64t-70 -26q-21 0 -39 7t-31.5 19t-21 28.5t-7.5 34.5t7.5 34t21 28t31.5 19t39 7z" />
    <glyph glyph-name="cent" unicode="&#xa2;" 
d="M536 0h-163v-98h-84v98h-34q-48 0 -75.5 6.5t-49.5 22.5q-26 19 -41.5 52t-15.5 69v137q0 46 9.5 75t31.5 49q26 24 56.5 34t78.5 10h40v116h84v-116h164v-187h-152q-2 55 -56 55q-29 0 -40.5 -14.5t-11.5 -49.5v-53q0 -42 11.5 -58t40.5 -16q54 0 56 55h152z" />
    <glyph glyph-name="sterling" unicode="&#xa3;" 
d="M41 0v107q40 4 63 28.5t23 64.5q0 12 -3.5 29.5t-8.5 34.5h-102v101h65q-8 28 -12 48.5t-4 40.5q0 82 78 126q34 19 82 28t117 9q31 0 58 -1.5t52.5 -5.5t51 -9.5t54.5 -14.5v-159h-175q-3 29 -15.5 42t-38.5 13q-54 0 -54 -63q0 -27 13 -54h116v-101h-85q2 -9 2.5 -14.5
t0.5 -14.5q0 -27 -7 -48.5t-26 -52.5h104v47h190v-181h-539z" />
    <glyph glyph-name="currency" unicode="&#xa4;" horiz-adv-x="724" 
d="M362 453q-23 0 -43.5 -9t-35.5 -24.5t-24 -36t-9 -44.5t9 -44.5t24 -36t35.5 -24.5t43.5 -9q24 0 44.5 9t36 24.5t24.5 36t9 43.5q0 24 -9 45t-24.5 36.5t-36 24.5t-44.5 9zM599 27l-101 101q-38 -23 -67.5 -32t-63.5 -9q-35 0 -67 9t-74 31l-101 -99l-80 79l101 102
q-19 35 -27.5 66.5t-8.5 63.5t9 61.5t31 70.5l-105 104l81 81l106 -106q22 10 39 17t32 11.5t29 6t31 1.5q16 0 30 -1.5t28.5 -5.5t31 -11t37.5 -17l105 104l80 -81l-102 -101q23 -39 32 -69t9 -66q0 -33 -7.5 -60t-28.5 -69l101 -101z" />
    <glyph glyph-name="yen" unicode="&#xa5;" 
d="M434 205v-71h63v-134h-404v134h63v71h-150v50h149l-39 88h-110v50h88l-37 82h-40v134h279v-134l53 -120l54 120v134h189v-134h-40l-36 -82h87v-50h-109q-3 -7 -5 -11t-7 -15q-12 -24 -17 -36t-9 -26h147v-50h-169z" />
    <glyph glyph-name="brokenbar" unicode="&#xa6;" 
d="M225 -130v322h160v-322h-160zM225 343v324h160v-324h-160z" />
    <glyph glyph-name="section" unicode="&#xa7;" 
d="M412 195q3 11 4.5 19t1.5 18q0 59 -88 95q-9 4 -16.5 7t-18.5 6t-26 7.5t-39 11.5q-17 -29 -17 -59q0 -18 10.5 -33t33.5 -27t61 -23t94 -22zM419 500q-2 26 -7 40.5t-19 26.5t-37 19t-52 7q-35 0 -58 -12t-23 -29q0 -22 28.5 -40t91.5 -35q130 -35 173 -86
q37 -43 37 -93q0 -65 -49 -139q29 -26 42.5 -53.5t13.5 -61.5q0 -93 -72 -143.5t-203 -50.5q-72 0 -129.5 10t-106.5 30v158h131v-21q0 -85 116 -85q48 0 79 18t31 47q0 27 -31 45.5t-100 30.5q-111 19 -160.5 59.5t-49.5 110.5q0 38 18 72.5t57 69.5q-71 49 -71 125
q0 80 64 122.5t184 42.5q68 0 123 -9t109 -29v-147h-130z" />
    <glyph glyph-name="dieresis" unicode="&#xa8;" horiz-adv-x="500" 
d="M145 661q32 0 52 -19.5t20 -51.5t-20 -52.5t-52 -20.5t-52 20t-20 52t20 52t52 20zM354 661q32 0 52 -19.5t20 -51.5q0 -33 -19.5 -53t-52.5 -20q-32 0 -52 20t-20 52t20 52t52 20z" />
    <glyph glyph-name="copyright" unicode="&#xa9;" horiz-adv-x="852" 
d="M429 612q-59 0 -113.5 -24.5t-96.5 -66t-67 -95t-25 -110.5q0 -59 25 -113t66 -96t95 -67t112 -25q57 0 111 25t96 66.5t67 95t25 110.5q0 58 -24.5 112t-66 96t-94.5 67t-110 25zM429 685q76 0 143 -29t117 -79.5t79 -117.5t29 -143q0 -79 -28.5 -147t-79 -118.5
t-118.5 -79.5t-146 -29t-145.5 29t-117.5 79t-78.5 118.5t-28.5 147.5q0 78 29 145t79.5 117t118.5 78.5t147 28.5zM386 117q-60 0 -94 31.5t-34 87.5v155q0 56 34 87.5t94 31.5h170v-149h-108v26q0 20 -6 27.5t-22 7.5t-22 -7.5t-6 -27.5v-147q0 -20 6 -27.5t22 -7.5
t22 7.5t6 27.5v41h108v-164h-170z" />
    <glyph glyph-name="ordfeminine" unicode="&#xaa;" horiz-adv-x="463" 
d="M50 241v73h363v-73h-363zM248 493q-13 8 -34 8q-31 0 -31 -26q0 -13 9 -21t23 -8q8 0 14 1.5t19 6.5v39zM248 377v21q-32 -16 -54 -22.5t-45 -6.5q-42 0 -68 26.5t-26 70.5q0 42 31.5 69t81.5 27q39 0 80 -14v37q0 21 -27 21q-30 0 -33 -24h-106v80q32 12 68.5 17.5
t87.5 5.5q70 0 106.5 -22.5t36.5 -66.5v-132h27v-87h-160z" />
    <glyph glyph-name="guillemotleft" unicode="&#xab;" horiz-adv-x="575" 
d="M170 29l-130 230l131 227h104l-65 -227l65 -230h-105zM410 29l-130 230l131 227h104l-65 -227l65 -230h-105z" />
    <glyph glyph-name="logicalnot" unicode="&#xac;" horiz-adv-x="525" 
d="M350 12v214h-300v121h425v-334z" />
    <glyph glyph-name="uni00AD" unicode="&#xad;" horiz-adv-x="380" 
d="M45 175v139h290v-139h-290z" />
    <glyph glyph-name="registered" unicode="&#xae;" horiz-adv-x="852" 
d="M432 345q30 0 30 39q0 22 -6.5 30t-23.5 8h-24v-77h24zM462 117v152q0 18 -30 18h-24v-170h-157v88h23v217h-23v88h270q38 0 56.5 -24t18.5 -76q0 -42 -11.5 -64t-40.5 -33q31 -9 41.5 -28t10.5 -63v-17h23v-88h-157zM429 612q-59 0 -113.5 -24.5t-96.5 -66t-67 -95
t-25 -110.5q0 -59 25 -113t66 -96t95 -67t112 -25q57 0 111 25t96 66.5t67 95t25 110.5q0 58 -24.5 112t-66 96t-94.5 67t-110 25zM429 685q76 0 143 -29t117 -79.5t79 -117.5t29 -143q0 -79 -28.5 -147t-79 -118.5t-118.5 -79.5t-146 -29t-145.5 29t-117.5 79t-78.5 118.5
t-28.5 147.5q0 78 29 145t79.5 117t118.5 78.5t147 28.5z" />
    <glyph glyph-name="macron" unicode="&#xaf;" horiz-adv-x="500" 
d="M99 542v82h302v-82h-302z" />
    <glyph glyph-name="degree" unicode="&#xb0;" horiz-adv-x="451" 
d="M224 596q-17 0 -32 -7t-26.5 -19t-18.5 -28t-7 -34t7 -33.5t18.5 -27.5t27 -19t32.5 -7q35 0 60.5 25.5t25.5 60.5q0 37 -25.5 63t-61.5 26zM226 684q36 0 68 -13.5t55.5 -37t37.5 -55t14 -67.5q0 -38 -13.5 -70.5t-37 -56.5t-55.5 -37.5t-69 -13.5t-69 13.5t-56 37.5
t-37.5 56t-13.5 68q0 37 13.5 69t37.5 56t56 37.5t69 13.5z" />
    <glyph glyph-name="plusminus" unicode="&#xb1;" horiz-adv-x="500" 
d="M38 0v113h425v-113h-425zM308 321v-156h-117v156h-153v114h153v157h117v-157h155v-114h-155z" />
    <glyph glyph-name="uni00B2" unicode="&#xb2;" horiz-adv-x="439" 
d="M45 264v96q0 82 81 115q4 2 13 5.5t18.5 7t19 6t15.5 4.5q29 9 40 20.5t11 33.5q0 19 -9.5 29.5t-26.5 10.5q-51 0 -53 -73h-109v118q56 16 97.5 23t82.5 7q46 0 80.5 -8.5t52.5 -24.5q15 -13 22 -37t7 -64q0 -35 -9.5 -56.5t-30.5 -35.5q-11 -7 -25.5 -12t-49.5 -15
q-74 -20 -74 -49v-29h45q10 0 16 1t9.5 4.5t5.5 11t4 20.5h109v-109h-342z" />
    <glyph glyph-name="uni00B3" unicode="&#xb3;" horiz-adv-x="439" 
d="M50 643q47 13 86 18.5t87 5.5q46 0 77.5 -6t51 -20t27.5 -37t8 -57q0 -29 -5.5 -44.5t-21.5 -31.5q20 -14 27 -32t7 -57q0 -30 -4 -47.5t-14 -31.5q-18 -24 -52.5 -35t-94.5 -11t-102 7.5t-82 24.5v116h109q0 -42 11.5 -59t37.5 -17q45 0 45 48q0 28 -15 38t-58 10v72
q37 1 51.5 13t14.5 43q0 42 -34 42q-23 0 -34.5 -19t-13.5 -61h-109v128z" />
    <glyph glyph-name="acute" unicode="&#xb4;" horiz-adv-x="500" 
d="M292 517h-90l71 150h128z" />
    <glyph glyph-name="uni00B5" unicode="&#xb5;" horiz-adv-x="634" 
d="M363 0v20q-14 -32 -49 -32q-14 0 -20.5 3.5t-13.5 14.5q-2 5 -3.5 7t-5.5 7v-143h-204v447h-41v131h245v-289q0 -20 11.5 -33t31.5 -13t34.5 13t14.5 33v157h-35v132h239v-326h41v-129h-245z" />
    <glyph glyph-name="paragraph" unicode="&#xb6;" horiz-adv-x="590" 
d="M316 161q-69 4 -117 22.5t-88 59.5q-35 35 -53 79t-18 92q0 49 18 92.5t53 78.5q20 20 41.5 35t46.5 24.5t53.5 15t63.5 7.5v-506zM480 577v-745h-160v90h70v745h160v-90h-70z" />
    <glyph glyph-name="periodcentered" unicode="&#xb7;" horiz-adv-x="346" 
d="M172 408q21 0 40 -8t33.5 -22.5t22.5 -33t8 -39.5t-8.5 -39.5t-23 -32.5t-33 -22.5t-39.5 -8.5t-39.5 8t-32.5 22t-22 33t-8 40t8 40t21.5 33t32.5 22t40 8z" />
    <glyph glyph-name="cedilla" unicode="&#xb8;" horiz-adv-x="500" 
d="M281 -27q95 -10 95 -80q0 -35 -26.5 -55.5t-71.5 -20.5q-26 0 -49 9.5t-52 32.5l29 31q29 -28 59 -28q29 0 29 32q0 18 -12.5 29t-32.5 11q-7 0 -14.5 -1t-23.5 -5l30 72h49z" />
    <glyph glyph-name="uni00B9" unicode="&#xb9;" horiz-adv-x="439" 
d="M147 264v72h39v180l-54 -51l-57 82l120 114h137v-325h27v-72h-212z" />
    <glyph glyph-name="ordmasculine" unicode="&#xba;" horiz-adv-x="434" 
d="M50 241v73h334v-73h-334zM245 554q0 44 -28 44t-28 -40v-62q0 -40 28 -40q15 0 21.5 10t6.5 34v54zM55 545q0 39 8.5 65.5t27.5 43t50 24t76 7.5t76 -7.5t50 -24t27.5 -43t8.5 -65.5v-36q0 -39 -8.5 -66t-27.5 -43.5t-50.5 -23.5t-76.5 -7q-63 0 -98 15t-51 47
q-7 15 -9.5 32t-2.5 50v32z" />
    <glyph glyph-name="guillemotright" unicode="&#xbb;" horiz-adv-x="575" 
d="M165 29h-105l65 230l-65 227h104l131 -227zM405 29h-105l65 230l-65 227h104l131 -227z" />
    <glyph glyph-name="onequarter" unicode="&#xbc;" horiz-adv-x="981" 
d="M147 264v72h39v180l-54 -51l-57 82l120 114h137v-325h27v-72h-212zM335 -16h-89l401 690h89zM764 325h-8l-88 -122h96v122zM731 0v72h28v58h-178v79l119 188h205v-194h30v-73h-30v-58h30v-72h-204z" />
    <glyph glyph-name="onehalf" unicode="&#xbd;" horiz-adv-x="981" 
d="M147 264v72h39v180l-54 -51l-57 82l120 114h137v-325h27v-72h-212zM328 -16h-89l401 690h89zM604 0v96q0 82 81 115q4 2 13 5.5t18.5 7t19 6t15.5 4.5q29 9 40 20.5t11 33.5q0 19 -9.5 29.5t-26.5 10.5q-51 0 -53 -73h-109v118q56 16 97.5 23t82.5 7q46 0 80.5 -8.5
t52.5 -24.5q15 -13 22 -37t7 -64q0 -35 -9.5 -56.5t-30.5 -35.5q-11 -7 -25.5 -12t-49.5 -15q-74 -20 -74 -49v-29h45q10 0 16 1t9.5 4.5t5.5 11t4 20.5h109v-109h-342z" />
    <glyph glyph-name="threequarters" unicode="&#xbe;" horiz-adv-x="981" 
d="M49 643q47 13 86 18.5t87 5.5q46 0 77.5 -6t51 -20t27.5 -37t8 -57q0 -29 -5.5 -44.5t-21.5 -31.5q20 -14 27 -32t7 -57q0 -30 -4 -47.5t-14 -31.5q-18 -24 -52.5 -35t-94.5 -11t-102 7.5t-82 24.5v116h109q0 -42 11.5 -59t37.5 -17q45 0 45 48q0 28 -15 38t-58 10v72
q37 1 51.5 13t14.5 43q0 42 -34 42q-23 0 -34.5 -19t-13.5 -61h-109v128zM352 -16h-89l401 690h89zM764 325h-8l-88 -122h96v122zM731 0v72h28v58h-178v79l119 188h205v-194h30v-73h-30v-58h30v-72h-204z" />
    <glyph glyph-name="questiondown" unicode="&#xbf;" horiz-adv-x="387" 
d="M369 -141q-40 -18 -75.5 -26t-74.5 -8q-68 0 -106 22q-38 23 -58.5 67t-20.5 104q0 34 3 58t12 43.5t25 37t42 39.5v107h202v-143q-38 -13 -60 -38t-22 -55q0 -55 54 -55q31 0 79 19v-172zM213 519q22 0 41 -7t33 -19t22.5 -28t8.5 -34q0 -38 -30 -63.5t-75 -25.5
q-22 0 -41.5 7t-33.5 19t-22.5 28t-8.5 34t8.5 34.5t22.5 28.5t33.5 19t41.5 7z" />
    <glyph glyph-name="Agrave" unicode="&#xc0;" horiz-adv-x="659" 
d="M298 517h-19l-33 -156h85zM329 0v150h48l-15 68h-147l-15 -68h47v-150h-240v150h38l79 367h-72v150h441l119 -517h40v-150h-323zM270 723l-100 142h134l61 -142h-95z" />
    <glyph glyph-name="Aacute" unicode="&#xc1;" horiz-adv-x="659" 
d="M298 517h-19l-33 -156h85zM329 0v150h48l-15 68h-147l-15 -68h47v-150h-240v150h38l79 367h-72v150h441l119 -517h40v-150h-323zM344 723h-95l61 142h134z" />
    <glyph glyph-name="Acircumflex" unicode="&#xc2;" horiz-adv-x="659" 
d="M298 517h-19l-33 -156h85zM329 0v150h48l-15 68h-147l-15 -68h47v-150h-240v150h38l79 367h-72v150h441l119 -517h40v-150h-323zM341 724l-57 77l-56 -77h-110l111 135h115l114 -135h-117z" />
    <glyph glyph-name="Atilde" unicode="&#xc3;" horiz-adv-x="659" 
d="M298 517h-19l-33 -156h85zM329 0v150h48l-15 68h-147l-15 -68h47v-150h-240v150h38l79 367h-72v150h441l119 -517h40v-150h-323zM471 842q-16 -30 -30 -50.5t-28 -33t-28.5 -18t-31.5 -5.5q-16 0 -33 4.5t-48 18.5q-28 11 -41 15t-25 4t-22 -9.5t-23 -34.5l-63 34
q14 27 21.5 40t15.5 24q32 44 74 44q15 0 31.5 -5t42.5 -17t42.5 -17t30.5 -5q16 0 25.5 9t25.5 39z" />
    <glyph glyph-name="Adieresis" unicode="&#xc4;" horiz-adv-x="659" 
d="M298 517h-19l-33 -156h85zM329 0v150h48l-15 68h-147l-15 -68h47v-150h-240v150h38l79 367h-72v150h441l119 -517h40v-150h-323zM167 877q31 0 52.5 -21.5t21.5 -52.5t-21.5 -52.5t-52.5 -21.5t-52.5 21.5t-21.5 52.5t21.5 52.5t52.5 21.5zM404 877q31 0 52.5 -21.5
t21.5 -52.5t-21.5 -52.5t-52.5 -21.5t-52.5 21.5t-21.5 52.5t21.5 52.5t52.5 21.5z" />
    <glyph glyph-name="Aring" unicode="&#xc5;" horiz-adv-x="659" 
d="M298 517h-19l-33 -156h85zM329 0v150h48l-15 68h-147l-15 -68h47v-150h-240v150h38l79 367h-72v150h441l119 -517h40v-150h-323zM300 857q-20 0 -36 -14t-16 -33t15.5 -33t35.5 -14t36 14t16 33t-15.5 33t-35.5 14zM300 914q22 0 41.5 -8.5t34.5 -22.5t23.5 -32.5
t8.5 -39.5t-8.5 -40.5t-23.5 -33.5t-35 -22.5t-42 -8.5t-41.5 8t-34.5 22.5t-23.5 33t-8.5 39.5t8.5 40.5t23.5 33.5t35 22.5t42 8.5z" />
    <glyph glyph-name="AE" unicode="&#xc6;" horiz-adv-x="914" 
d="M385 517h-23l-72 -156h95v156zM343 0v150h42v68h-146l-24 -68h47v-150h-255v150h38l147 367h-52v150h742v-200h-197v50h-72v-104h184v-150h-184v-113h72v73h197v-223h-539z" />
    <glyph glyph-name="Ccedilla" unicode="&#xc7;" horiz-adv-x="587" 
d="M345 0l-9 -27q95 -10 95 -80q0 -35 -26.5 -55.5t-71.5 -20.5q-26 0 -49 9.5t-52 32.5l29 31q29 -28 59 -28q29 0 29 32q0 18 -12.5 29t-32.5 11q-7 0 -14.5 -1t-23.5 -5l30 72h-34q-102 0 -160 54t-58 148v263q0 94 58 148t160 54h288v-253h-184v45q0 32 -10.5 45
t-36.5 13t-36.5 -13t-10.5 -45v-251q0 -32 10.5 -45t36.5 -13t36.5 13t10.5 45v70h184v-278h-205z" />
    <glyph glyph-name="Egrave" unicode="&#xc8;" horiz-adv-x="619" 
d="M36 0v150h42v367h-42v150h551v-200h-197v50h-84v-104h196v-150h-196v-113h84v73h197v-223h-551zM307 723l-100 142h134l61 -142h-95z" />
    <glyph glyph-name="Eacute" unicode="&#xc9;" horiz-adv-x="619" 
d="M36 0v150h42v367h-42v150h551v-200h-197v50h-84v-104h196v-150h-196v-113h84v73h197v-223h-551zM359 723h-95l61 142h134z" />
    <glyph glyph-name="Ecircumflex" unicode="&#xca;" horiz-adv-x="619" 
d="M36 0v150h42v367h-42v150h551v-200h-197v50h-84v-104h196v-150h-196v-113h84v73h197v-223h-551zM381 724l-57 77l-56 -77h-110l111 135h115l114 -135h-117z" />
    <glyph glyph-name="Edieresis" unicode="&#xcb;" horiz-adv-x="619" 
d="M36 0v150h42v367h-42v150h551v-200h-197v50h-84v-104h196v-150h-196v-113h84v73h197v-223h-551zM205 877q31 0 52.5 -21.5t21.5 -52.5t-21.5 -52.5t-52.5 -21.5t-52.5 21.5t-21.5 52.5t21.5 52.5t52.5 21.5zM442 877q31 0 52.5 -21.5t21.5 -52.5t-21.5 -52.5t-52.5 -21.5
t-52.5 21.5t-21.5 52.5t21.5 52.5t52.5 21.5z" />
    <glyph glyph-name="Igrave" unicode="&#xcc;" horiz-adv-x="384" 
d="M36 0v150h42v367h-42v150h312v-150h-42v-367h42v-150h-312zM177 723l-100 142h134l61 -142h-95z" />
    <glyph glyph-name="Iacute" unicode="&#xcd;" horiz-adv-x="384" 
d="M36 0v150h42v367h-42v150h312v-150h-42v-367h42v-150h-312zM223 723h-95l61 142h134z" />
    <glyph glyph-name="Icircumflex" unicode="&#xce;" horiz-adv-x="384" 
d="M36 0v150h42v367h-42v150h312v-150h-42v-367h42v-150h-312zM245 724l-57 77l-56 -77h-110l111 135h115l114 -135h-117z" />
    <glyph glyph-name="Idieresis" unicode="&#xcf;" horiz-adv-x="384" 
d="M36 0v150h42v367h-42v150h312v-150h-42v-367h42v-150h-312zM87 877q31 0 52.5 -21.5t21.5 -52.5t-21.5 -52.5t-52.5 -21.5t-52.5 21.5t-21.5 52.5t21.5 52.5t52.5 21.5zM297 877q31 0 52.5 -21.5t21.5 -52.5t-21.5 -52.5t-52.5 -21.5t-52.5 21.5t-21.5 52.5t21.5 52.5
t52.5 21.5z" />
    <glyph glyph-name="Eth" unicode="&#xd0;" horiz-adv-x="684" 
d="M338 150q42 0 58 19.5t16 68.5v191q0 49 -16 68.5t-58 19.5h-32v-107h52v-81h-52v-179h32zM452 667q121 0 164 -110q13 -35 18.5 -86t5.5 -135q0 -39 -1 -68.5t-3 -53t-5 -42.5t-8 -37q-36 -135 -171 -135h-416v150h42v179h-68v81h68v107h-42v150h416z" />
    <glyph glyph-name="Ntilde" unicode="&#xd1;" horiz-adv-x="737" 
d="M665 517v-517h-260l-183 373v-223h42v-150h-234v150h42v367h-42v150h296l189 -385v235h-42v150h234v-150h-42zM550 842q-16 -30 -30 -50.5t-28 -33t-28.5 -18t-31.5 -5.5q-16 0 -33 4.5t-48 18.5q-28 11 -41 15t-25 4t-22 -9.5t-23 -34.5l-63 34q14 27 21.5 40t15.5 24
q32 44 74 44q15 0 31.5 -5t42.5 -17t42.5 -17t30.5 -5q16 0 25.5 9t25.5 39z" />
    <glyph glyph-name="Ograve" unicode="&#xd2;" horiz-adv-x="651" 
d="M379 452q0 44 -12.5 63.5t-40.5 19.5t-40.5 -19t-12.5 -61v-240q0 -42 12 -61t40 -19q29 0 41.5 19t12.5 63v235zM44 418q0 46 2.5 74.5t9.5 51.5q20 74 84.5 107.5t186.5 33.5q106 0 165.5 -24t87.5 -78q7 -14 12.5 -30t8.5 -35.5t4.5 -44t1.5 -55.5v-166
q0 -45 -2.5 -73.5t-9.5 -52.5q-20 -74 -83.5 -107.5t-185.5 -33.5q-107 0 -167 24t-88 78q-15 28 -21 65t-6 100v166zM311 723l-100 142h134l61 -142h-95z" />
    <glyph glyph-name="Oacute" unicode="&#xd3;" horiz-adv-x="651" 
d="M379 452q0 44 -12.5 63.5t-40.5 19.5t-40.5 -19t-12.5 -61v-240q0 -42 12 -61t40 -19q29 0 41.5 19t12.5 63v235zM44 418q0 46 2.5 74.5t9.5 51.5q20 74 84.5 107.5t186.5 33.5q106 0 165.5 -24t87.5 -78q7 -14 12.5 -30t8.5 -35.5t4.5 -44t1.5 -55.5v-166
q0 -45 -2.5 -73.5t-9.5 -52.5q-20 -74 -83.5 -107.5t-185.5 -33.5q-107 0 -167 24t-88 78q-15 28 -21 65t-6 100v166zM358 723h-95l61 142h134z" />
    <glyph glyph-name="Ocircumflex" unicode="&#xd4;" horiz-adv-x="651" 
d="M379 452q0 44 -12.5 63.5t-40.5 19.5t-40.5 -19t-12.5 -61v-240q0 -42 12 -61t40 -19q29 0 41.5 19t12.5 63v235zM44 418q0 46 2.5 74.5t9.5 51.5q20 74 84.5 107.5t186.5 33.5q106 0 165.5 -24t87.5 -78q7 -14 12.5 -30t8.5 -35.5t4.5 -44t1.5 -55.5v-166
q0 -45 -2.5 -73.5t-9.5 -52.5q-20 -74 -83.5 -107.5t-185.5 -33.5q-107 0 -167 24t-88 78q-15 28 -21 65t-6 100v166zM383 724l-57 77l-56 -77h-110l111 135h115l114 -135h-117z" />
    <glyph glyph-name="Otilde" unicode="&#xd5;" horiz-adv-x="651" 
d="M379 452q0 44 -12.5 63.5t-40.5 19.5t-40.5 -19t-12.5 -61v-240q0 -42 12 -61t40 -19q29 0 41.5 19t12.5 63v235zM44 418q0 46 2.5 74.5t9.5 51.5q20 74 84.5 107.5t186.5 33.5q106 0 165.5 -24t87.5 -78q7 -14 12.5 -30t8.5 -35.5t4.5 -44t1.5 -55.5v-166
q0 -45 -2.5 -73.5t-9.5 -52.5q-20 -74 -83.5 -107.5t-185.5 -33.5q-107 0 -167 24t-88 78q-15 28 -21 65t-6 100v166zM513 842q-16 -30 -30 -50.5t-28 -33t-28.5 -18t-31.5 -5.5q-16 0 -33 4.5t-48 18.5q-28 11 -41 15t-25 4t-22 -9.5t-23 -34.5l-63 34q14 27 21.5 40
t15.5 24q32 44 74 44q15 0 31.5 -5t42.5 -17t42.5 -17t30.5 -5q16 0 25.5 9t25.5 39z" />
    <glyph glyph-name="Odieresis" unicode="&#xd6;" horiz-adv-x="651" 
d="M379 452q0 44 -12.5 63.5t-40.5 19.5t-40.5 -19t-12.5 -61v-240q0 -42 12 -61t40 -19q29 0 41.5 19t12.5 63v235zM44 418q0 46 2.5 74.5t9.5 51.5q20 74 84.5 107.5t186.5 33.5q106 0 165.5 -24t87.5 -78q7 -14 12.5 -30t8.5 -35.5t4.5 -44t1.5 -55.5v-166
q0 -45 -2.5 -73.5t-9.5 -52.5q-20 -74 -83.5 -107.5t-185.5 -33.5q-107 0 -167 24t-88 78q-15 28 -21 65t-6 100v166zM208 877q31 0 52.5 -21.5t21.5 -52.5t-21.5 -52.5t-52.5 -21.5t-52.5 21.5t-21.5 52.5t21.5 52.5t52.5 21.5zM445 877q31 0 52.5 -21.5t21.5 -52.5
t-21.5 -52.5t-52.5 -21.5t-52.5 21.5t-21.5 52.5t21.5 52.5t52.5 21.5z" />
    <glyph glyph-name="multiply" unicode="&#xd7;" horiz-adv-x="550" 
d="M421 79l-146 146l-146 -146l-80 80l146 146l-145 146l80 80l146 -146l145 145l80 -80l-145 -145l145 -146z" />
    <glyph glyph-name="Oslash" unicode="&#xd8;" horiz-adv-x="651" 
d="M379 452q0 44 -12.5 63.5t-40.5 19.5t-40.5 -19t-12.5 -61v-240q0 -42 12 -61t40 -19q29 0 41.5 19t12.5 63v235zM532 639q22 -18 36.5 -37t23 -44t12 -59t3.5 -81v-166q0 -46 -2.5 -74t-9.5 -52q-20 -75 -83.5 -108t-185.5 -33q-25 0 -44.5 1t-36 2.5t-32 4.5t-31.5 8
l-55 -99h-79l71 129q-22 18 -36.5 37t-23 44t-12 59t-3.5 81v166q0 46 2.5 74.5t9.5 51.5q20 75 84 108t185 33q50 0 81 -3.5t64 -12.5l55 100h78z" />
    <glyph glyph-name="Ugrave" unicode="&#xd9;" horiz-adv-x="731" 
d="M659 516v-361q0 -170 -297 -170q-142 0 -214 42.5t-72 127.5v361h-42v151h305v-151h-35v-323q0 -34 13 -46t50 -12q38 0 51 13t13 51v317h-35v151h305v-151h-42zM359 723l-100 142h134l61 -142h-95z" />
    <glyph glyph-name="Uacute" unicode="&#xda;" horiz-adv-x="731" 
d="M659 516v-361q0 -170 -297 -170q-142 0 -214 42.5t-72 127.5v361h-42v151h305v-151h-35v-323q0 -34 13 -46t50 -12q38 0 51 13t13 51v317h-35v151h305v-151h-42zM416 723h-95l61 142h134z" />
    <glyph glyph-name="Ucircumflex" unicode="&#xdb;" horiz-adv-x="731" 
d="M659 516v-361q0 -170 -297 -170q-142 0 -214 42.5t-72 127.5v361h-42v151h305v-151h-35v-323q0 -34 13 -46t50 -12q38 0 51 13t13 51v317h-35v151h305v-151h-42zM446 724l-57 77l-56 -77h-110l111 135h115l114 -135h-117z" />
    <glyph glyph-name="Udieresis" unicode="&#xdc;" horiz-adv-x="731" 
d="M659 516v-361q0 -170 -297 -170q-142 0 -214 42.5t-72 127.5v361h-42v151h305v-151h-35v-323q0 -34 13 -46t50 -12q38 0 51 13t13 51v317h-35v151h305v-151h-42zM263 877q31 0 52.5 -21.5t21.5 -52.5t-21.5 -52.5t-52.5 -21.5t-52.5 21.5t-21.5 52.5t21.5 52.5t52.5 21.5
zM500 877q31 0 52.5 -21.5t21.5 -52.5t-21.5 -52.5t-52.5 -21.5t-52.5 21.5t-21.5 52.5t21.5 52.5t52.5 21.5z" />
    <glyph glyph-name="Yacute" unicode="&#xdd;" horiz-adv-x="589" 
d="M536 517l-127 -288v-79h69v-150h-366v150h69v79l-128 288h-46v150h290v-150l38 -86l38 86v150h209v-150h-46zM353 723h-95l61 142h134z" />
    <glyph glyph-name="Thorn" unicode="&#xde;" horiz-adv-x="651" 
d="M353 290q46 0 46 52q0 53 -46 53h-47v-105h47zM496 545q63 0 97 -53t34 -150t-33.5 -149.5t-96.5 -52.5h-191v-140h-270v150h42v385h-42v150h270v-140h190z" />
    <glyph glyph-name="germandbls" unicode="&#xdf;" horiz-adv-x="621" 
d="M536 245q16 -20 27.5 -39.5t19 -40.5t10.5 -45t3 -52q0 -102 -69.5 -154t-218.5 -63v132q80 23 80 101q0 42 -17.5 73.5t-44.5 38.5v31l43 96h-98v-323h-248v132h40v310q0 128 44.5 185.5t143.5 57.5q27 0 54 -5t68 -18l-19 -128q-21 9 -41 9q-23 0 -32.5 -17.5
t-9.5 -57.5v-13h307v-127z" />
    <glyph glyph-name="agrave" unicode="&#xe0;" horiz-adv-x="579" 
d="M321 176q-11 7 -22.5 9.5t-27.5 2.5q-23 0 -35.5 -10.5t-12.5 -28.5q0 -20 13.5 -32t36.5 -12q13 0 23 2.5t25 9.5v59zM321 0v32q-50 -25 -82.5 -34.5t-67.5 -9.5q-29 0 -56 8q-18 5 -34 18.5t-27.5 32.5t-18.5 42t-7 47q0 32 12.5 58.5t35 46t54 30t69.5 10.5
q59 0 122 -21v56q0 32 -37 32q-34 0 -38 -36h-162v121q24 9 48.5 16t51 11t57 6t66.5 2q107 0 162.5 -34.5t55.5 -100.5v-201h40v-132h-244zM308 517l-109 150h128l71 -150h-90z" />
    <glyph glyph-name="aacute" unicode="&#xe1;" horiz-adv-x="579" 
d="M321 176q-11 7 -22.5 9.5t-27.5 2.5q-23 0 -35.5 -10.5t-12.5 -28.5q0 -20 13.5 -32t36.5 -12q13 0 23 2.5t25 9.5v59zM321 0v32q-50 -25 -82.5 -34.5t-67.5 -9.5q-29 0 -56 8q-18 5 -34 18.5t-27.5 32.5t-18.5 42t-7 47q0 32 12.5 58.5t35 46t54 30t69.5 10.5
q59 0 122 -21v56q0 32 -37 32q-34 0 -38 -36h-162v121q24 9 48.5 16t51 11t57 6t66.5 2q107 0 162.5 -34.5t55.5 -100.5v-201h40v-132h-244zM335 517h-90l71 150h128z" />
    <glyph glyph-name="acircumflex" unicode="&#xe2;" horiz-adv-x="579" 
d="M321 176q-11 7 -22.5 9.5t-27.5 2.5q-23 0 -35.5 -10.5t-12.5 -28.5q0 -20 13.5 -32t36.5 -12q13 0 23 2.5t25 9.5v59zM321 0v32q-50 -25 -82.5 -34.5t-67.5 -9.5q-29 0 -56 8q-18 5 -34 18.5t-27.5 32.5t-18.5 42t-7 47q0 32 12.5 58.5t35 46t54 30t69.5 10.5
q59 0 122 -21v56q0 32 -37 32q-34 0 -38 -36h-162v121q24 9 48.5 16t51 11t57 6t66.5 2q107 0 162.5 -34.5t55.5 -100.5v-201h40v-132h-244zM351 516l-50 84l-49 -84h-100l105 148h96l105 -148h-107z" />
    <glyph glyph-name="atilde" unicode="&#xe3;" horiz-adv-x="579" 
d="M321 176q-11 7 -22.5 9.5t-27.5 2.5q-23 0 -35.5 -10.5t-12.5 -28.5q0 -20 13.5 -32t36.5 -12q13 0 23 2.5t25 9.5v59zM321 0v32q-50 -25 -82.5 -34.5t-67.5 -9.5q-29 0 -56 8q-18 5 -34 18.5t-27.5 32.5t-18.5 42t-7 47q0 32 12.5 58.5t35 46t54 30t69.5 10.5
q59 0 122 -21v56q0 32 -37 32q-34 0 -38 -36h-162v121q24 9 48.5 16t51 11t57 6t66.5 2q107 0 162.5 -34.5t55.5 -100.5v-201h40v-132h-244zM480 614q-29 -45 -60 -69t-60 -24q-16 0 -32.5 7.5t-41.5 25.5q-19 14 -29 19t-19 5t-16 -6t-23 -27q-4 -5 -6.5 -8t-5.5 -6l-48 41
q37 54 61.5 74.5t51.5 20.5q16 0 32.5 -7.5t40.5 -24.5q20 -14 31 -19.5t22 -5.5t18 5t21 22q2 3 4.5 5t10.5 12z" />
    <glyph glyph-name="adieresis" unicode="&#xe4;" horiz-adv-x="579" 
d="M321 176q-11 7 -22.5 9.5t-27.5 2.5q-23 0 -35.5 -10.5t-12.5 -28.5q0 -20 13.5 -32t36.5 -12q13 0 23 2.5t25 9.5v59zM321 0v32q-50 -25 -82.5 -34.5t-67.5 -9.5q-29 0 -56 8q-18 5 -34 18.5t-27.5 32.5t-18.5 42t-7 47q0 32 12.5 58.5t35 46t54 30t69.5 10.5
q59 0 122 -21v56q0 32 -37 32q-34 0 -38 -36h-162v121q24 9 48.5 16t51 11t57 6t66.5 2q107 0 162.5 -34.5t55.5 -100.5v-201h40v-132h-244zM195 661q32 0 52 -19.5t20 -51.5t-20 -52.5t-52 -20.5t-52 20t-20 52t20 52t52 20zM404 661q32 0 52 -19.5t20 -51.5
q0 -33 -19.5 -53t-52.5 -20q-32 0 -52 20t-20 52t20 52t52 20z" />
    <glyph glyph-name="aring" unicode="&#xe5;" horiz-adv-x="579" 
d="M321 176q-11 7 -22.5 9.5t-27.5 2.5q-23 0 -35.5 -10.5t-12.5 -28.5q0 -20 13.5 -32t36.5 -12q13 0 23 2.5t25 9.5v59zM321 0v32q-50 -25 -82.5 -34.5t-67.5 -9.5q-29 0 -56 8q-18 5 -34 18.5t-27.5 32.5t-18.5 42t-7 47q0 32 12.5 58.5t35 46t54 30t69.5 10.5
q59 0 122 -21v56q0 32 -37 32q-34 0 -38 -36h-162v121q24 9 48.5 16t51 11t57 6t66.5 2q107 0 162.5 -34.5t55.5 -100.5v-201h40v-132h-244zM306 638q-16 0 -28 -12t-12 -28t11.5 -28t27.5 -12t28 12t12 28t-11.5 28t-27.5 12zM306 695q40 0 68 -28t28 -68q0 -42 -28 -70
t-69 -28q-40 0 -68 28t-28 68q0 41 28 69.5t69 28.5z" />
    <glyph glyph-name="ae" unicode="&#xe6;" horiz-adv-x="845" 
d="M623 318q0 15 -14 25.5t-35 10.5q-22 0 -36 -10t-14 -25v-33h99v32zM321 176q-19 12 -51 12q-22 0 -34.5 -11t-12.5 -29q0 -19 13.5 -31t34.5 -12q13 0 24 2.5t26 9.5v59zM819 35q-27 -13 -53 -22t-55.5 -14.5t-64 -8t-76.5 -2.5q-41 0 -72 3t-55 10t-43 18t-37 28
q-40 -31 -79 -45t-88 -14q-22 0 -44 2t-33 5q-19 5 -35.5 18.5t-29 32.5t-19.5 42t-7 47q0 32 12.5 59t35 46.5t54 30t69.5 10.5q59 0 122 -21v42q0 17 -0.5 21t-3.5 9q-10 16 -33 16q-33 0 -38 -36h-162v121q48 19 99 27t122 8q43 0 70.5 -8t57.5 -30q13 10 27.5 17.5
t31 12t37 6.5t46.5 2q94 0 147 -22.5t78 -73.5q6 -12 9.5 -23.5t5.5 -24.5t3 -30t1 -40v-51h-289v-46q0 -17 12.5 -27t32.5 -10q46 0 48 38h196v-123z" />
    <glyph glyph-name="ccedilla" unicode="&#xe7;" horiz-adv-x="491" 
d="M464 0h-174l-9 -27q95 -10 95 -80q0 -35 -26.5 -55.5t-71.5 -20.5q-26 0 -49 9.5t-52 32.5l29 31q29 -28 59 -28q29 0 29 32q0 18 -12.5 29t-32.5 11q-7 0 -14.5 -1t-23.5 -5l30 72h-45q-78 0 -118 37q-21 20 -34 50.5t-13 62.5v137q0 47 9.5 76t32.5 49q26 24 56 33.5
t78 9.5h258v-187h-152q0 32 -8.5 43.5t-29.5 11.5q-17 0 -28.5 -10t-11.5 -25v-111q0 -45 39 -45q23 0 31 11.5t8 43.5h152z" />
    <glyph glyph-name="egrave" unicode="&#xe8;" horiz-adv-x="551" 
d="M329 318q0 16 -14 26t-36 10q-21 0 -35 -10t-14 -26v-32h99v32zM525 35q-27 -13 -53 -22t-55.5 -14.5t-63.5 -8t-76 -2.5q-100 0 -153.5 22t-78.5 73q-11 23 -15 48.5t-4 67.5v58q0 27 1.5 45.5t5.5 34.5q16 69 73.5 99.5t169.5 30.5q98 0 152 -22.5t78 -73.5
q11 -22 15 -47.5t4 -68.5v-52h-295v-46q0 -16 14.5 -26.5t37.5 -10.5q45 0 47 38h196v-123zM261 517l-109 150h128l71 -150h-90z" />
    <glyph glyph-name="eacute" unicode="&#xe9;" horiz-adv-x="551" 
d="M329 318q0 16 -14 26t-36 10q-21 0 -35 -10t-14 -26v-32h99v32zM525 35q-27 -13 -53 -22t-55.5 -14.5t-63.5 -8t-76 -2.5q-100 0 -153.5 22t-78.5 73q-11 23 -15 48.5t-4 67.5v58q0 27 1.5 45.5t5.5 34.5q16 69 73.5 99.5t169.5 30.5q98 0 152 -22.5t78 -73.5
q11 -22 15 -47.5t4 -68.5v-52h-295v-46q0 -16 14.5 -26.5t37.5 -10.5q45 0 47 38h196v-123zM290 517h-90l71 150h128z" />
    <glyph glyph-name="ecircumflex" unicode="&#xea;" horiz-adv-x="551" 
d="M329 318q0 16 -14 26t-36 10q-21 0 -35 -10t-14 -26v-32h99v32zM525 35q-27 -13 -53 -22t-55.5 -14.5t-63.5 -8t-76 -2.5q-100 0 -153.5 22t-78.5 73q-11 23 -15 48.5t-4 67.5v58q0 27 1.5 45.5t5.5 34.5q16 69 73.5 99.5t169.5 30.5q98 0 152 -22.5t78 -73.5
q11 -22 15 -47.5t4 -68.5v-52h-295v-46q0 -16 14.5 -26.5t37.5 -10.5q45 0 47 38h196v-123zM322 516l-50 84l-49 -84h-100l105 148h96l105 -148h-107z" />
    <glyph glyph-name="edieresis" unicode="&#xeb;" horiz-adv-x="551" 
d="M329 318q0 16 -14 26t-36 10q-21 0 -35 -10t-14 -26v-32h99v32zM525 35q-27 -13 -53 -22t-55.5 -14.5t-63.5 -8t-76 -2.5q-100 0 -153.5 22t-78.5 73q-11 23 -15 48.5t-4 67.5v58q0 27 1.5 45.5t5.5 34.5q16 69 73.5 99.5t169.5 30.5q98 0 152 -22.5t78 -73.5
q11 -22 15 -47.5t4 -68.5v-52h-295v-46q0 -16 14.5 -26.5t37.5 -10.5q45 0 47 38h196v-123zM171 661q32 0 52 -19.5t20 -51.5t-20 -52.5t-52 -20.5t-52 20t-20 52t20 52t52 20zM380 661q32 0 52 -19.5t20 -51.5q0 -33 -19.5 -53t-52.5 -20q-32 0 -52 20t-20 52t20 52t52 20z
" />
    <glyph glyph-name="igrave" unicode="&#xec;" horiz-adv-x="327" 
d="M26 0v132h40v191h-40v132h244v-323h40v-132h-284zM150 517l-109 150h128l71 -150h-90z" />
    <glyph glyph-name="iacute" unicode="&#xed;" horiz-adv-x="327" 
d="M26 0v132h40v191h-40v132h244v-323h40v-132h-284zM188 517h-90l71 150h128z" />
    <glyph glyph-name="icircumflex" unicode="&#xee;" horiz-adv-x="341" 
d="M30 0v132h40v191h-40v132h244v-323h40v-132h-284zM212 516l-42 71l-42 -71h-111l105 148h96l105 -148h-111z" />
    <glyph glyph-name="idieresis" unicode="&#xef;" horiz-adv-x="341" 
d="M29 0v132h40v191h-40v132h244v-323h40v-132h-284zM77 661q32 0 52 -19.5t20 -51.5t-20 -52.5t-52 -20.5t-52 20t-20 52t20 52t52 20zM264 661q32 0 52 -19.5t20 -51.5q0 -33 -19.5 -53t-52.5 -20q-32 0 -52 20t-20 52t20 52t52 20z" />
    <glyph glyph-name="eth" unicode="&#xf0;" horiz-adv-x="560" 
d="M323 268q0 68 -43 68t-43 -61v-94q0 -61 43 -61q23 0 33 16t10 52v80zM372 609q46 -32 81.5 -81.5t55.5 -110.5q10 -30 14 -66t4 -87v-74q0 -55 -13.5 -93.5t-43.5 -62.5t-78 -35t-116 -11t-114.5 11.5t-75.5 36.5t-41.5 65.5t-11.5 99.5v59q0 29 1.5 47t6.5 35
q17 61 67 93.5t130 32.5q21 0 40.5 -4t44.5 -14q0 61 -54 109l-111 -55l-26 51l85 42q-24 14 -49.5 26t-59.5 25l40 59q67 -18 107 -32.5t60 -28.5l121 60l25 -53z" />
    <glyph glyph-name="ntilde" unicode="&#xf1;" horiz-adv-x="625" 
d="M363 0v289q0 21 -11.5 33.5t-31.5 12.5q-21 0 -35 -13t-14 -33v-157h35v-132h-280v132h41v191h-41v132h245v-47q26 32 58 45.5t85 13.5q74 0 113.5 -37.5t39.5 -107.5v-191h41v-131h-245zM490 614q-29 -45 -60 -69t-60 -24q-16 0 -32.5 7.5t-41.5 25.5q-19 14 -29 19
t-19 5t-16 -6t-23 -27q-4 -5 -6.5 -8t-5.5 -6l-48 41q37 54 61.5 74.5t51.5 20.5q16 0 32.5 -7.5t40.5 -24.5q20 -14 31 -19.5t22 -5.5t18 5t21 22q2 3 4.5 5t10.5 12z" />
    <glyph glyph-name="ograve" unicode="&#xf2;" horiz-adv-x="560" 
d="M324 268q0 36 -10 52t-33 16q-43 0 -43 -61v-94q0 -61 42 -61q23 0 33.5 16t10.5 52v80zM528 196q0 -58 -13 -98t-42.5 -64.5t-77 -35t-117.5 -10.5q-95 0 -148.5 22t-76.5 72q-6 13 -9.5 25t-6 28.5t-3 38.5t-0.5 54v32q0 58 13 97.5t42 64t76 35.5t116 11
q111 0 167 -29.5t72 -96.5q3 -11 4.5 -20.5t2 -21.5t1 -29t0.5 -43v-32zM266 517l-109 150h128l71 -150h-90z" />
    <glyph glyph-name="oacute" unicode="&#xf3;" horiz-adv-x="560" 
d="M324 268q0 36 -10 52t-33 16q-43 0 -43 -61v-94q0 -61 42 -61q23 0 33.5 16t10.5 52v80zM528 196q0 -58 -13 -98t-42.5 -64.5t-77 -35t-117.5 -10.5q-95 0 -148.5 22t-76.5 72q-6 13 -9.5 25t-6 28.5t-3 38.5t-0.5 54v32q0 58 13 97.5t42 64t76 35.5t116 11
q111 0 167 -29.5t72 -96.5q3 -11 4.5 -20.5t2 -21.5t1 -29t0.5 -43v-32zM293 517h-90l71 150h128z" />
    <glyph glyph-name="ocircumflex" unicode="&#xf4;" horiz-adv-x="560" 
d="M323 268q0 36 -10 52t-33 16q-43 0 -43 -61v-94q0 -61 43 -61q23 0 33 16t10 52v80zM326 516l-50 84l-49 -84h-100l105 148h96l105 -148h-107zM527 196q0 -58 -13 -97.5t-42.5 -64t-77.5 -35.5t-117 -11q-95 0 -148 22t-76 71q-11 23 -15.5 51.5t-4.5 74.5v48
q0 26 1.5 45t4.5 35q15 71 71.5 102t168.5 31q101 0 155 -23.5t76 -76.5q5 -12 8 -23.5t5 -25.5t3 -33t1 -44v-46z" />
    <glyph glyph-name="otilde" unicode="&#xf5;" horiz-adv-x="560" 
d="M324 268q0 36 -10 52t-33 16q-43 0 -43 -61v-94q0 -61 42 -61q23 0 33.5 16t10.5 52v80zM528 196q0 -58 -13 -98t-42.5 -64.5t-77 -35t-117.5 -10.5q-95 0 -148.5 22t-76.5 72q-6 13 -9.5 25t-6 28.5t-3 38.5t-0.5 54v32q0 58 13 97.5t42 64t76 35.5t116 11
q111 0 167 -29.5t72 -96.5q3 -11 4.5 -20.5t2 -21.5t1 -29t0.5 -43v-32zM452 614q-29 -45 -60 -69t-60 -24q-16 0 -32.5 7.5t-41.5 25.5q-19 14 -29 19t-19 5t-16 -6t-23 -27q-4 -5 -6.5 -8t-5.5 -6l-48 41q37 54 61.5 74.5t51.5 20.5q16 0 32.5 -7.5t40.5 -24.5
q20 -14 31 -19.5t22 -5.5t18 5t21 22q2 3 4.5 5t10.5 12z" />
    <glyph glyph-name="odieresis" unicode="&#xf6;" horiz-adv-x="560" 
d="M324 268q0 36 -10 52t-33 16q-43 0 -43 -61v-94q0 -61 42 -61q23 0 33.5 16t10.5 52v80zM528 196q0 -58 -13 -98t-42.5 -64.5t-77 -35t-117.5 -10.5q-95 0 -148.5 22t-76.5 72q-6 13 -9.5 25t-6 28.5t-3 38.5t-0.5 54v32q0 58 13 97.5t42 64t76 35.5t116 11
q111 0 167 -29.5t72 -96.5q3 -11 4.5 -20.5t2 -21.5t1 -29t0.5 -43v-32zM177 661q32 0 52 -19.5t20 -51.5t-20 -52.5t-52 -20.5t-52 20t-20 52t20 52t52 20zM386 661q32 0 52 -19.5t20 -51.5q0 -33 -19.5 -53t-52.5 -20q-32 0 -52 20t-20 52t20 52t52 20z" />
    <glyph glyph-name="divide" unicode="&#xf7;" horiz-adv-x="525" 
d="M262 215q18 0 34.5 -7t28.5 -19t19 -28t7 -34q0 -38 -26 -64t-64 -26t-63 25.5t-25 63.5t25.5 63.5t63.5 25.5zM50 244v118h425v-118h-425zM262 569q18 0 34 -7t28.5 -19.5t19.5 -29t7 -34.5q0 -37 -26 -62.5t-64 -25.5t-63 25t-25 63t26 64t63 26z" />
    <glyph glyph-name="oslash" unicode="&#xf8;" horiz-adv-x="560" 
d="M324 268q0 36 -10 52t-33 16q-43 0 -43 -61v-94q0 -61 42 -61q23 0 33.5 16t10.5 52v80zM441 441q25 -14 41.5 -29.5t26.5 -36.5t14.5 -49t4.5 -67q1 -50 0 -77t-4 -45q-6 -40 -22.5 -68.5t-46 -46.5t-73.5 -26t-104 -8q-27 0 -47 1.5t-42 4.5l-46 -83h-74l56 102
q-28 14 -45.5 30t-27.5 40t-14 58.5t-4 86.5v32q0 58 13 98t42.5 64.5t77 35t117.5 10.5q30 0 50.5 -1.5t43.5 -5.5l46 84h75z" />
    <glyph glyph-name="ugrave" unicode="&#xf9;" horiz-adv-x="625" 
d="M354 0v47q-26 -32 -58.5 -45.5t-84.5 -13.5q-74 0 -113.5 37.5t-39.5 107.5v190h-41v132h245v-289q0 -21 11.5 -33.5t31.5 -12.5q21 0 35 13t14 33v157h-35v132h239v-326h41v-129h-245zM276 517l-109 150h128l71 -150h-90z" />
    <glyph glyph-name="uacute" unicode="&#xfa;" horiz-adv-x="625" 
d="M354 0v47q-26 -32 -58.5 -45.5t-84.5 -13.5q-74 0 -113.5 37.5t-39.5 107.5v190h-41v132h245v-289q0 -21 11.5 -33.5t31.5 -12.5q21 0 35 13t14 33v157h-35v132h239v-326h41v-129h-245zM323 517h-90l71 150h128z" />
    <glyph glyph-name="ucircumflex" unicode="&#xfb;" horiz-adv-x="625" 
d="M354 0v47q-26 -32 -58.5 -45.5t-84.5 -13.5q-74 0 -113.5 37.5t-39.5 107.5v190h-41v132h245v-289q0 -21 11.5 -33.5t31.5 -12.5q21 0 35 13t14 33v157h-35v132h239v-326h41v-129h-245zM351 516l-50 84l-49 -84h-100l105 148h96l105 -148h-107z" />
    <glyph glyph-name="udieresis" unicode="&#xfc;" horiz-adv-x="625" 
d="M354 0v47q-26 -32 -58.5 -45.5t-84.5 -13.5q-74 0 -113.5 37.5t-39.5 107.5v190h-41v132h245v-289q0 -21 11.5 -33.5t31.5 -12.5q21 0 35 13t14 33v157h-35v132h239v-326h41v-129h-245zM200 661q32 0 52 -19.5t20 -51.5t-20 -52.5t-52 -20.5t-52 20t-20 52t20 52t52 20z
M409 661q32 0 52 -19.5t20 -51.5q0 -33 -19.5 -53t-52.5 -20q-32 0 -52 20t-20 52t20 52t52 20z" />
    <glyph glyph-name="yacute" unicode="&#xfd;" horiz-adv-x="569" 
d="M527 323l-141 -267v-77h45v-132h-294v132h45v79l-140 265h-35v132h265v-132l55 -104l55 104h-1v132h181v-132h-35zM342 517h-90l71 150h128z" />
    <glyph glyph-name="thorn" unicode="&#xfe;" horiz-adv-x="590" 
d="M355 286q0 24 -11.5 37.5t-31.5 13.5q-23 0 -32.5 -11t-9.5 -37v-119q0 -50 40 -50q25 0 35 14.5t10 49.5v102zM270 422q14 13 26 22t25 14t27.5 7t34.5 2q92 0 141 -70q20 -27 27.5 -57.5t7.5 -77.5v-60q0 -57 -9 -92t-31 -62q-24 -29 -56.5 -44.5t-70.5 -15.5
q-21 0 -37 2t-29.5 6.5t-26.5 13t-29 21.5v-184h-244v132h40v556h-40v132h244v-245z" />
    <glyph glyph-name="ydieresis" unicode="&#xff;" horiz-adv-x="569" 
d="M527 323l-141 -267v-77h45v-132h-294v132h45v79l-140 265h-35v132h265v-132l55 -104l55 104h-1v132h181v-132h-35zM193 661q32 0 52 -19.5t20 -51.5t-20 -52.5t-52 -20.5t-52 20t-20 52t20 52t52 20zM402 661q32 0 52 -19.5t20 -51.5q0 -33 -19.5 -53t-52.5 -20
q-32 0 -52 20t-20 52t20 52t52 20z" />
    <glyph glyph-name="Amacron" unicode="&#x100;" horiz-adv-x="659" 
d="M298 517h-19l-33 -156h85zM329 0v150h48l-15 68h-147l-15 -68h47v-150h-240v150h38l79 367h-72v150h441l119 -517h40v-150h-323zM123 760v88h332v-88h-332z" />
    <glyph glyph-name="amacron" unicode="&#x101;" horiz-adv-x="579" 
d="M321 176q-11 7 -22.5 9.5t-27.5 2.5q-23 0 -35.5 -10.5t-12.5 -28.5q0 -20 13.5 -32t36.5 -12q13 0 23 2.5t25 9.5v59zM321 0v32q-50 -25 -82.5 -34.5t-67.5 -9.5q-29 0 -56 8q-18 5 -34 18.5t-27.5 32.5t-18.5 42t-7 47q0 32 12.5 58.5t35 46t54 30t69.5 10.5
q59 0 122 -21v56q0 32 -37 32q-34 0 -38 -36h-162v121q24 9 48.5 16t51 11t57 6t66.5 2q107 0 162.5 -34.5t55.5 -100.5v-201h40v-132h-244zM169 542v82h302v-82h-302z" />
    <glyph glyph-name="Abreve" unicode="&#x102;" horiz-adv-x="659" 
d="M298 517h-19l-33 -156h85zM329 0v150h48l-15 68h-147l-15 -68h47v-150h-240v150h38l79 367h-72v150h441l119 -517h40v-150h-323zM446 865q-2 -35 -10.5 -56.5t-27.5 -41.5q-22 -22 -54 -34t-70 -12t-70 12t-55 35q-19 20 -27.5 41t-10.5 56h68q13 -52 95 -52q81 0 94 52
h68z" />
    <glyph glyph-name="abreve" unicode="&#x103;" horiz-adv-x="579" 
d="M321 176q-11 7 -22.5 9.5t-27.5 2.5q-23 0 -35.5 -10.5t-12.5 -28.5q0 -20 13.5 -32t36.5 -12q13 0 23 2.5t25 9.5v59zM321 0v32q-50 -25 -82.5 -34.5t-67.5 -9.5q-29 0 -56 8q-18 5 -34 18.5t-27.5 32.5t-18.5 42t-7 47q0 32 12.5 58.5t35 46t54 30t69.5 10.5
q59 0 122 -21v56q0 32 -37 32q-34 0 -38 -36h-162v121q24 9 48.5 16t51 11t57 6t66.5 2q107 0 162.5 -34.5t55.5 -100.5v-201h40v-132h-244zM444 667q-2 -38 -12 -63.5t-31 -46.5q-40 -40 -100 -40t-102 40q-21 22 -30.5 47t-11.5 63h65q14 -64 79 -64q31 0 51.5 17t26.5 47
h65z" />
    <glyph glyph-name="Aogonek" unicode="&#x104;" horiz-adv-x="659" 
d="M298 517h-19l-33 -156h85zM652 -131q-37 -29 -64.5 -40.5t-59.5 -11.5q-47 0 -76 25t-29 66q0 23 12.5 43.5t43.5 48.5h-150v150h48l-15 68h-147l-15 -68h47v-150h-240v150h38l79 367h-72v150h441l119 -517h40v-150h-104q-29 -33 -29 -69q0 -19 10 -26.5t33 -7.5
q20 0 37.5 4t38.5 14z" />
    <glyph glyph-name="aogonek" unicode="&#x105;" horiz-adv-x="579" 
d="M321 176q-11 7 -22.5 9.5t-27.5 2.5q-23 0 -35.5 -10.5t-12.5 -28.5q0 -20 13.5 -32t36.5 -12q13 0 23 2.5t25 9.5v59zM565 -131q-37 -29 -64.5 -40.5t-59.5 -11.5q-47 0 -76 25t-29 66q0 23 12.5 43.5t43.5 48.5h-71v32q-50 -25 -82.5 -34.5t-67.5 -9.5q-29 0 -56 8
q-18 5 -34 18.5t-27.5 32.5t-18.5 42t-7 47q0 32 12.5 58.5t35 46t54 30t69.5 10.5q59 0 122 -21v56q0 32 -37 32q-34 0 -38 -36h-162v121q24 9 48.5 16t51 11t57 6t66.5 2q107 0 162.5 -34.5t55.5 -100.5v-201h40v-132h-104q-29 -33 -29 -69q0 -19 10 -26.5t33 -7.5
q20 0 37.5 4t38.5 14z" />
    <glyph glyph-name="Cacute" unicode="&#x106;" horiz-adv-x="587" 
d="M262 0q-102 0 -160 54t-58 148v263q0 94 58 148t160 54h288v-253h-184v45q0 32 -10.5 45t-36.5 13t-36.5 -13t-10.5 -45v-251q0 -32 10.5 -45t36.5 -13t36.5 13t10.5 45v70h184v-278h-288zM349 723h-95l61 142h134z" />
    <glyph glyph-name="cacute" unicode="&#x107;" horiz-adv-x="491" 
d="M464 0h-268q-78 0 -118 37q-21 20 -34 50.5t-13 62.5v137q0 47 9.5 76t32.5 49q26 24 56 33.5t78 9.5h258v-187h-152q0 32 -8.5 43.5t-29.5 11.5q-17 0 -28.5 -10t-11.5 -25v-111q0 -45 39 -45q23 0 31 11.5t8 43.5h152zM292 517h-90l71 150h128z" />
    <glyph glyph-name="Ccircumflex" unicode="&#x108;" horiz-adv-x="587" 
d="M262 0q-102 0 -160 54t-58 148v263q0 94 58 148t160 54h288v-253h-184v45q0 32 -10.5 45t-36.5 13t-36.5 -13t-10.5 -45v-251q0 -32 10.5 -45t36.5 -13t36.5 13t10.5 45v70h184v-278h-288zM371 724l-57 77l-56 -77h-110l111 135h115l114 -135h-117z" />
    <glyph glyph-name="ccircumflex" unicode="&#x109;" horiz-adv-x="491" 
d="M464 0h-268q-78 0 -118 37q-21 20 -34 50.5t-13 62.5v137q0 47 9.5 76t32.5 49q26 24 56 33.5t78 9.5h258v-187h-152q0 32 -8.5 43.5t-29.5 11.5q-17 0 -28.5 -10t-11.5 -25v-111q0 -45 39 -45q23 0 31 11.5t8 43.5h152zM312 516l-50 84l-49 -84h-100l105 148h96
l105 -148h-107z" />
    <glyph glyph-name="Cdotaccent" unicode="&#x10a;" horiz-adv-x="587" 
d="M262 0q-102 0 -160 54t-58 148v263q0 94 58 148t160 54h288v-253h-184v45q0 32 -10.5 45t-36.5 13t-36.5 -13t-10.5 -45v-251q0 -32 10.5 -45t36.5 -13t36.5 13t10.5 45v70h184v-278h-288zM329 877q31 0 52.5 -21.5t21.5 -52.5t-21.5 -52.5t-52.5 -21.5t-52.5 21.5
t-21.5 52.5t21.5 52.5t52.5 21.5z" />
    <glyph glyph-name="cdotaccent" unicode="&#x10b;" horiz-adv-x="491" 
d="M464 0h-268q-78 0 -118 37q-21 20 -34 50.5t-13 62.5v137q0 47 9.5 76t32.5 49q26 24 56 33.5t78 9.5h258v-187h-152q0 32 -8.5 43.5t-29.5 11.5q-17 0 -28.5 -10t-11.5 -25v-111q0 -45 39 -45q23 0 31 11.5t8 43.5h152zM280 661q32 0 52 -19.5t20 -51.5t-20 -52.5
t-52 -20.5t-52 20t-20 52t20 52t52 20z" />
    <glyph glyph-name="Ccaron" unicode="&#x10c;" horiz-adv-x="587" 
d="M262 0q-102 0 -160 54t-58 148v263q0 94 58 148t160 54h288v-253h-184v45q0 32 -10.5 45t-36.5 13t-36.5 -13t-10.5 -45v-251q0 -32 10.5 -45t36.5 -13t36.5 13t10.5 45v70h184v-278h-288zM369 724h-115l-114 135h117l57 -77l56 77h110z" />
    <glyph glyph-name="ccaron" unicode="&#x10d;" horiz-adv-x="491" 
d="M464 0h-268q-78 0 -118 37q-21 20 -34 50.5t-13 62.5v137q0 47 9.5 76t32.5 49q26 24 56 33.5t78 9.5h258v-187h-152q0 32 -8.5 43.5t-29.5 11.5q-17 0 -28.5 -10t-11.5 -25v-111q0 -45 39 -45q23 0 31 11.5t8 43.5h152zM306 516h-96l-105 148h107l50 -84l49 84h100z" />
    <glyph glyph-name="Dcaron" unicode="&#x10e;" horiz-adv-x="684" 
d="M338 150q42 0 58 19t16 69v191q0 50 -16 69t-58 19h-32v-367h32zM452 667q121 0 164 -110q13 -35 18.5 -86t5.5 -135q0 -39 -1 -68.5t-3 -53t-5 -42.5t-8 -37q-36 -135 -171 -135h-416v150h42v367h-42v150h416zM384 724h-115l-114 135h117l57 -77l56 77h110z" />
    <glyph glyph-name="dcaron" unicode="&#x10f;" horiz-adv-x="717" 
d="M320 285q0 50 -40 50q-25 0 -35 -14.5t-10 -49.5v-102q0 -24 11.5 -37.5t31.5 -13.5q23 0 32.5 11t9.5 37v119zM320 0v33q-14 -14 -26 -22.5t-25 -13.5t-28 -7t-34 -2q-92 0 -141 70q-19 27 -27 57.5t-8 77.5v60q0 57 9 92t31 62q49 60 129 60q21 0 36.5 -2t29 -7
t26.5 -13t28 -21v111h-40v132h244v-535h40v-132h-244zM642 500h-78l29 167h112z" />
    <glyph glyph-name="Dcroat" unicode="&#x110;" horiz-adv-x="684" 
d="M338 150q42 0 58 19.5t16 68.5v191q0 49 -16 68.5t-58 19.5h-32v-107h52v-81h-52v-179h32zM452 667q121 0 164 -110q13 -35 18.5 -86t5.5 -135q0 -39 -1 -68.5t-3 -53t-5 -42.5t-8 -37q-36 -135 -171 -135h-416v150h42v179h-68v81h68v107h-42v150h416z" />
    <glyph glyph-name="dcroat" unicode="&#x111;" horiz-adv-x="595" 
d="M320 285q0 50 -41 50q-23 0 -33.5 -15t-10.5 -49v-102q0 -24 11.5 -37.5t31.5 -13.5q23 0 32.5 11t9.5 37v119zM524 516v-384h40v-132h-244v33q-27 -26 -50.5 -35.5t-62.5 -9.5q-92 0 -141 70q-19 27 -27 57.5t-8 77.5v60q0 55 9.5 91t31.5 63q23 29 56 44.5t71 15.5
q21 0 36.5 -2t29 -7t27 -13t28.5 -21v92h-109v75h109v76h204v-76h54v-75h-54z" />
    <glyph glyph-name="Emacron" unicode="&#x112;" horiz-adv-x="619" 
d="M36 0v150h42v367h-42v150h551v-200h-197v50h-84v-104h196v-150h-196v-113h84v73h197v-223h-551zM145 760v88h332v-88h-332z" />
    <glyph glyph-name="emacron" unicode="&#x113;" horiz-adv-x="551" 
d="M329 318q0 16 -14 26t-36 10q-21 0 -35 -10t-14 -26v-32h99v32zM525 35q-27 -13 -53 -22t-55.5 -14.5t-63.5 -8t-76 -2.5q-100 0 -153.5 22t-78.5 73q-11 23 -15 48.5t-4 67.5v58q0 27 1.5 45.5t5.5 34.5q16 69 73.5 99.5t169.5 30.5q98 0 152 -22.5t78 -73.5
q11 -22 15 -47.5t4 -68.5v-52h-295v-46q0 -16 14.5 -26.5t37.5 -10.5q45 0 47 38h196v-123zM124 542v82h302v-82h-302z" />
    <glyph glyph-name="Ebreve" unicode="&#x114;" horiz-adv-x="619" 
d="M36 0v150h42v367h-42v150h551v-200h-197v50h-84v-104h196v-150h-196v-113h84v73h197v-223h-551zM486 865q-2 -35 -10.5 -56.5t-27.5 -41.5q-22 -22 -54 -34t-70 -12t-70 12t-55 35q-19 20 -27.5 41t-10.5 56h68q13 -52 95 -52q81 0 94 52h68z" />
    <glyph glyph-name="ebreve" unicode="&#x115;" horiz-adv-x="551" 
d="M329 318q0 16 -14 26t-36 10q-21 0 -35 -10t-14 -26v-32h99v32zM525 35q-27 -13 -53 -22t-55.5 -14.5t-63.5 -8t-76 -2.5q-100 0 -153.5 22t-78.5 73q-11 23 -15 48.5t-4 67.5v58q0 27 1.5 45.5t5.5 34.5q16 69 73.5 99.5t169.5 30.5q98 0 152 -22.5t78 -73.5
q11 -22 15 -47.5t4 -68.5v-52h-295v-46q0 -16 14.5 -26.5t37.5 -10.5q45 0 47 38h196v-123zM419 667q-2 -38 -12 -63.5t-31 -46.5q-40 -40 -100 -40t-102 40q-21 22 -30.5 47t-11.5 63h65q14 -64 79 -64q31 0 51.5 17t26.5 47h65z" />
    <glyph glyph-name="Edotaccent" unicode="&#x116;" horiz-adv-x="619" 
d="M36 0v150h42v367h-42v150h551v-200h-197v50h-84v-104h196v-150h-196v-113h84v73h197v-223h-551zM323 877q31 0 52.5 -21.5t21.5 -52.5t-21.5 -52.5t-52.5 -21.5t-52.5 21.5t-21.5 52.5t21.5 52.5t52.5 21.5z" />
    <glyph glyph-name="edotaccent" unicode="&#x117;" horiz-adv-x="551" 
d="M329 318q0 16 -14 26t-36 10q-21 0 -35 -10t-14 -26v-32h99v32zM525 35q-27 -13 -53 -22t-55.5 -14.5t-63.5 -8t-76 -2.5q-100 0 -153.5 22t-78.5 73q-11 23 -15 48.5t-4 67.5v58q0 27 1.5 45.5t5.5 34.5q16 69 73.5 99.5t169.5 30.5q98 0 152 -22.5t78 -73.5
q11 -22 15 -47.5t4 -68.5v-52h-295v-46q0 -16 14.5 -26.5t37.5 -10.5q45 0 47 38h196v-123zM275 661q32 0 52 -19.5t20 -51.5t-20 -52.5t-52 -20.5t-52 20t-20 52t20 52t52 20z" />
    <glyph glyph-name="Eogonek" unicode="&#x118;" horiz-adv-x="619" 
d="M587 -131q-37 -29 -64.5 -40.5t-59.5 -11.5q-47 0 -76 25t-29 66q0 23 12.5 43.5t43.5 48.5h-378v150h42v367h-42v150h551v-200h-197v50h-84v-104h196v-150h-196v-113h84v73h197v-223h-104q-29 -33 -29 -69q0 -19 10 -26.5t33 -7.5q20 0 37.5 4t38.5 14z" />
    <glyph glyph-name="eogonek" unicode="&#x119;" horiz-adv-x="551" 
d="M329 318q0 16 -14 26t-36 10q-21 0 -35 -10t-14 -26v-32h99v32zM525 -131q-36 -29 -63.5 -40.5t-60.5 -11.5q-47 0 -76 25t-29 66q0 21 10 39.5t35 42.5q-12 -1 -25.5 -1.5t-36.5 -0.5q-71 0 -119.5 11t-78.5 36t-43 65t-13 99v46q0 29 1.5 48t4.5 35q14 75 71.5 107
t173.5 32q55 0 96 -7t70 -21.5t47 -37.5t27 -56q10 -33 10 -86v-17q0 -8 -1 -22v-17h-295v-46q0 -16 14.5 -26.5t37.5 -10.5q45 0 47 38h196v-123q-22 -12 -48 -20.5t-56 -14.5q-29 -33 -29 -69q0 -18 9.5 -26t32.5 -8q20 0 38 4t39 14z" />
    <glyph glyph-name="Ecaron" unicode="&#x11a;" horiz-adv-x="619" 
d="M36 0v150h42v367h-42v150h551v-200h-197v50h-84v-104h196v-150h-196v-113h84v73h197v-223h-551zM379 724h-115l-114 135h117l57 -77l56 77h110z" />
    <glyph glyph-name="ecaron" unicode="&#x11b;" horiz-adv-x="551" 
d="M329 318q0 16 -14 26t-36 10q-21 0 -35 -10t-14 -26v-32h99v32zM525 35q-27 -13 -53 -22t-55.5 -14.5t-63.5 -8t-76 -2.5q-100 0 -153.5 22t-78.5 73q-11 23 -15 48.5t-4 67.5v58q0 27 1.5 45.5t5.5 34.5q16 69 73.5 99.5t169.5 30.5q98 0 152 -22.5t78 -73.5
q11 -22 15 -47.5t4 -68.5v-52h-295v-46q0 -16 14.5 -26.5t37.5 -10.5q45 0 47 38h196v-123zM320 516h-96l-105 148h107l50 -84l49 84h100z" />
    <glyph glyph-name="Gcircumflex" unicode="&#x11c;" horiz-adv-x="627" 
d="M222 0q-84 0 -126 51.5t-48 160.5q-2 31 -3 65.5t-1 57.5q0 29 0.5 62.5t2.5 57.5q6 109 48 160.5t126 51.5h369v-248h-197v31q0 38 -13 52.5t-47 14.5t-47.5 -13t-13.5 -45v-251q0 -32 13.5 -45t47.5 -13t47 12t13 44h-42v154h239v-360h-368zM390 724l-57 77l-56 -77
h-110l111 135h115l114 -135h-117z" />
    <glyph glyph-name="gcircumflex" unicode="&#x11d;" horiz-adv-x="574" 
d="M309 287q0 26 -8.5 37t-28.5 11q-15 0 -26 -10.5t-11 -24.5v-57q0 -19 9.5 -30t24.5 -11q21 0 30.5 11t9.5 37v37zM513 323v-231q0 -56 -16 -101t-48 -77q-67 -67 -210 -67q-52 0 -103 10.5t-105 31.5l49 118q36 -14 75 -22t68 -8q81 0 84 118q-41 -14 -64.5 -19.5
t-48.5 -5.5q-163 0 -163 186v31q0 88 41 134t119 46q34 0 60 -10t58 -35v33h244v-132h-40zM364 516l-50 84l-49 -84h-100l105 148h96l105 -148h-107z" />
    <glyph glyph-name="Gbreve" unicode="&#x11e;" horiz-adv-x="627" 
d="M222 0q-84 0 -126 51.5t-48 160.5q-2 31 -3 65.5t-1 57.5q0 29 0.5 62.5t2.5 57.5q6 109 48 160.5t126 51.5h369v-248h-197v31q0 38 -13 52.5t-47 14.5t-47.5 -13t-13.5 -45v-251q0 -32 13.5 -45t47.5 -13t47 12t13 44h-42v154h239v-360h-368zM510 865
q-2 -35 -10.5 -56.5t-27.5 -41.5q-22 -22 -54 -34t-70 -12t-70 12t-55 35q-19 20 -27.5 41t-10.5 56h68q13 -52 95 -52q81 0 94 52h68z" />
    <glyph glyph-name="gbreve" unicode="&#x11f;" horiz-adv-x="574" 
d="M309 287q0 26 -8.5 37t-28.5 11q-15 0 -26 -10.5t-11 -24.5v-57q0 -19 9.5 -30t24.5 -11q21 0 30.5 11t9.5 37v37zM513 323v-231q0 -56 -16 -101t-48 -77q-67 -67 -210 -67q-52 0 -103 10.5t-105 31.5l49 118q36 -14 75 -22t68 -8q81 0 84 118q-41 -14 -64.5 -19.5
t-48.5 -5.5q-163 0 -163 186v31q0 88 41 134t119 46q34 0 60 -10t58 -35v33h244v-132h-40zM457 667q-2 -38 -12 -63.5t-31 -46.5q-40 -40 -100 -40t-102 40q-21 22 -30.5 47t-11.5 63h65q14 -64 79 -64q31 0 51.5 17t26.5 47h65z" />
    <glyph glyph-name="Gdotaccent" unicode="&#x120;" horiz-adv-x="627" 
d="M222 0q-84 0 -126 51.5t-48 160.5q-2 31 -3 65.5t-1 57.5q0 29 0.5 62.5t2.5 57.5q6 109 48 160.5t126 51.5h369v-248h-197v31q0 38 -13 52.5t-47 14.5t-47.5 -13t-13.5 -45v-251q0 -32 13.5 -45t47.5 -13t47 12t13 44h-42v154h239v-360h-368zM349 877q31 0 52.5 -21.5
t21.5 -52.5t-21.5 -52.5t-52.5 -21.5t-52.5 21.5t-21.5 52.5t21.5 52.5t52.5 21.5z" />
    <glyph glyph-name="gdotaccent" unicode="&#x121;" horiz-adv-x="574" 
d="M309 287q0 26 -8.5 37t-28.5 11q-15 0 -26 -10.5t-11 -24.5v-57q0 -19 9.5 -30t24.5 -11q21 0 30.5 11t9.5 37v37zM513 323v-231q0 -56 -16 -101t-48 -77q-67 -67 -210 -67q-52 0 -103 10.5t-105 31.5l49 118q36 -14 75 -22t68 -8q81 0 84 118q-41 -14 -64.5 -19.5
t-48.5 -5.5q-163 0 -163 186v31q0 88 41 134t119 46q34 0 60 -10t58 -35v33h244v-132h-40zM300 661q32 0 52 -19.5t20 -51.5t-20 -52.5t-52 -20.5t-52 20t-20 52t20 52t52 20z" />
    <glyph glyph-name="Gcommaaccent" unicode="&#x122;" horiz-adv-x="627" 
d="M222 0q-84 0 -126 51.5t-48 160.5q-2 31 -3 65.5t-1 57.5q0 29 0.5 62.5t2.5 57.5q6 109 48 160.5t126 51.5h369v-248h-197v31q0 38 -13 52.5t-47 14.5t-47.5 -13t-13.5 -45v-251q0 -32 13.5 -45t47.5 -13t47 12t13 44h-42v154h239v-360h-368zM342 -189h-89l25 141h129z
" />
    <glyph glyph-name="gcommaaccent" unicode="&#x123;" horiz-adv-x="574" 
d="M309 287q0 26 -8.5 37t-28.5 11q-15 0 -26 -10.5t-11 -24.5v-57q0 -19 9.5 -30t24.5 -11q21 0 30.5 11t9.5 37v37zM513 323v-231q0 -56 -16 -101t-48 -77q-67 -67 -210 -67q-52 0 -103 10.5t-105 31.5l49 118q36 -14 75 -22t68 -8q81 0 84 118q-41 -14 -64.5 -19.5
t-48.5 -5.5q-163 0 -163 186v31q0 88 41 134t119 46q34 0 60 -10t58 -35v33h244v-132h-40zM372 517h-129l65 141h89z" />
    <glyph glyph-name="Hcircumflex" unicode="&#x124;" horiz-adv-x="739" 
d="M398 0v150h42v113h-134v-113h35v-150h-305v150h42v367h-42v150h305v-150h-35v-104h134v104h-42v150h305v-150h-35v-367h35v-150h-305zM429 724l-57 77l-56 -77h-110l111 135h115l114 -135h-117z" />
    <glyph glyph-name="hcircumflex" unicode="&#x125;" horiz-adv-x="625" 
d="M363 0v289q0 21 -11.5 33.5t-31.5 12.5q-21 0 -35 -13t-14 -33v-157h35v-132h-280v132h41v403h-41v132h245v-259q26 32 58 45.5t85 13.5q74 0 113.5 -37.5t39.5 -107.5v-191h41v-131h-245zM360 723l-50 84l-49 -84h-100l105 148h96l105 -148h-107z" />
    <glyph glyph-name="Hbar" unicode="&#x126;" horiz-adv-x="739" 
d="M440 500h-134v-87h134v87zM398 0v150h42v113h-134v-113h35v-150h-305v150h42v350h-42v81h42v86h228v-86h134v86h228v-86h35v-81h-35v-350h35v-150h-305z" />
    <glyph glyph-name="hbar" unicode="&#x127;" horiz-adv-x="620" 
d="M358 0v289q0 21 -11.5 33.5t-31.5 12.5q-21 0 -35 -13t-14 -33v-157h35v-132h-280v132h41v384h-41v75h41v76h204v-76h118v-75h-118v-108q26 32 58 45.5t85 13.5q74 0 113.5 -37.5t39.5 -107.5v-191h41v-131h-245z" />
    <glyph glyph-name="Itilde" unicode="&#x128;" horiz-adv-x="384" 
d="M36 0v150h42v367h-42v150h312v-150h-42v-367h42v-150h-312zM363 828q-29 -45 -60 -69t-60 -24q-16 0 -32.5 7.5t-41.5 25.5q-19 14 -29 19t-19 5t-16 -6t-23 -27q-4 -5 -6.5 -8t-5.5 -6l-48 41q37 54 61.5 74.5t51.5 20.5q16 0 32.5 -7.5t40.5 -24.5q20 -14 31 -19.5
t22 -5.5t18 5t21 22q2 3 4.5 5t10.5 12z" />
    <glyph glyph-name="itilde" unicode="&#x129;" horiz-adv-x="341" 
d="M30 0v132h40v191h-40v132h244v-323h40v-132h-284zM341 614q-29 -45 -60 -69t-60 -24q-16 0 -32.5 7.5t-41.5 25.5q-19 14 -29 19t-19 5t-16 -6t-23 -27q-4 -5 -6.5 -8t-5.5 -6l-48 41q37 54 61.5 74.5t51.5 20.5q16 0 32.5 -7.5t40.5 -24.5q20 -14 31 -19.5t22 -5.5t18 5
t21 22q2 3 4.5 5t10.5 12z" />
    <glyph glyph-name="Imacron" unicode="&#x12a;" horiz-adv-x="384" 
d="M36 0v150h42v367h-42v150h312v-150h-42v-367h42v-150h-312zM36 760v88h312v-88h-312z" />
    <glyph glyph-name="imacron" unicode="&#x12b;" horiz-adv-x="327" 
d="M26 0v132h40v191h-40v132h244v-323h40v-132h-284zM26 542v82h284v-82h-284z" />
    <glyph glyph-name="Iogonek" unicode="&#x12e;" horiz-adv-x="384" 
d="M348 -131q-37 -29 -64.5 -40.5t-59.5 -11.5q-47 0 -76 25t-29 66q0 23 12.5 43.5t43.5 48.5h-139v150h42v367h-42v150h312v-150h-42v-367h42v-150h-104q-29 -33 -29 -69q0 -19 10 -26.5t33 -7.5q20 0 37.5 4t38.5 14z" />
    <glyph glyph-name="iogonek" unicode="&#x12f;" horiz-adv-x="327" 
d="M310 -131q-37 -29 -64.5 -40.5t-59.5 -11.5q-47 0 -76 25t-29 66q0 23 12.5 43.5t43.5 48.5h-111v132h40v191h-40v132h244v-323h40v-132h-104q-29 -33 -29 -69q0 -19 10 -26.5t33 -7.5q20 0 37.5 4t38.5 14zM168 667q21 0 39 -7t32 -19t22 -28.5t8 -34.5q0 -19 -8 -36
t-21.5 -29.5t-32 -19.5t-39.5 -7t-39.5 7t-32 19.5t-21 29t-7.5 35.5q0 38 29 64t71 26z" />
    <glyph glyph-name="Idotaccent" unicode="&#x130;" horiz-adv-x="384" 
d="M36 0v150h42v367h-42v150h312v-150h-42v-367h42v-150h-312zM192 877q31 0 52.5 -21.5t21.5 -52.5t-21.5 -52.5t-52.5 -21.5t-52.5 21.5t-21.5 52.5t21.5 52.5t52.5 21.5z" />
    <glyph glyph-name="dotlessi" unicode="&#x131;" horiz-adv-x="341" 
d="M30 0v132h40v191h-40v132h244v-323h40v-132h-284z" />
    <glyph glyph-name="IJ" unicode="&#x132;" horiz-adv-x="737" 
d="M36 0v150h42v367h-42v150h312v-150h-42v-367h42v-150h-312zM701 111q0 -52 -12.5 -89t-39 -60t-68 -34t-100.5 -11h-87v150q24 3 39 9t24 16.5t12.5 27t3.5 40.5v357h-42v150h270v-556z" />
    <glyph glyph-name="ij" unicode="&#x133;" horiz-adv-x="652" 
d="M610 -7q0 -32 -11 -59t-31 -46.5t-47.5 -30t-60.5 -10.5q-20 0 -45 4t-60 13v127q32 2 42 9.5t10 27.5v8q0 5 -1 16v271h-40v132h244v-462zM30 0v132h40v191h-40v132h244v-323h40v-132h-284zM172 667q21 0 39 -7t32 -19t22 -28.5t8 -34.5q0 -19 -8 -36t-21.5 -29.5
t-32 -19.5t-39.5 -7t-39.5 7t-32 19.5t-21 29t-7.5 35.5q0 38 29 64t71 26zM507 667q21 0 39 -7t32 -19t22 -28.5t8 -34.5q0 -19 -8 -36t-21.5 -29.5t-32 -19.5t-39.5 -7t-39.5 7t-32 19.5t-21 29t-7.5 35.5q0 38 29 64t71 26z" />
    <glyph glyph-name="Jcircumflex" unicode="&#x134;" horiz-adv-x="353" 
d="M317 111q0 -52 -12.5 -89t-39 -60t-68 -34t-100.5 -11h-87v150q24 3 39 9t24 16.5t12.5 27t3.5 40.5v357h-42v150h270v-556zM223 730l-50 84l-49 -84h-100l105 148h96l105 -148h-107z" />
    <glyph glyph-name="jcircumflex" unicode="&#x135;" horiz-adv-x="317" 
d="M275 -7q0 -32 -11 -59t-31 -46.5t-47.5 -30t-60.5 -10.5q-20 0 -45 4t-60 13v127q32 2 42 9.5t10 27.5v8q0 5 -1 16v271h-40v132h244v-462zM205 516l-50 84l-49 -84h-100l105 148h96l105 -148h-107z" />
    <glyph glyph-name="Kcommaaccent" unicode="&#x136;" horiz-adv-x="686" 
d="M372 -189h-89l25 141h129zM398 0v230q0 23 -10.5 31.5t-37.5 8.5h-44v-120h35v-150h-305v150h42v367h-42v150h305v-150h-35v-97h39l95 247h214v-150h-48l-39 -106q31 -15 45 -36t14 -53v-172h42v-150h-270z" />
    <glyph glyph-name="kcommaaccent" unicode="&#x137;" horiz-adv-x="613" 
d="M322 -189h-84l35 141h122zM366 0v147q0 24 -12.5 31t-53.5 7h-30v-53h36v-132h-280v132h40v403h-40v132h244v-345h71l25 22v111h205v-132l-74 -61q25 -12 39.5 -22.5t22 -24t9.5 -33t2 -50.5h20v-132h-224z" />
    <glyph glyph-name="Lacute" unicode="&#x139;" horiz-adv-x="615" 
d="M36 0v150h42v367h-42v150h305v-150h-35v-367h86v133h197v-283h-553zM223 723h-95l61 142h134z" />
    <glyph glyph-name="lacute" unicode="&#x13a;" horiz-adv-x="332" 
d="M26 0v132h41v403h-41v132h245v-535h35v-132h-280zM162 723h-90l71 150h128z" />
    <glyph glyph-name="Lcommaaccent" unicode="&#x13b;" horiz-adv-x="615" 
d="M328 -189h-89l25 141h129zM36 0v150h42v367h-42v150h305v-150h-35v-367h86v133h197v-283h-553z" />
    <glyph glyph-name="lcommaaccent" unicode="&#x13c;" horiz-adv-x="332" 
d="M164 -189h-84l35 141h122zM26 0v132h41v403h-41v132h245v-535h35v-132h-280z" />
    <glyph glyph-name="Lcaron" unicode="&#x13d;" horiz-adv-x="615" 
d="M36 0v150h42v367h-42v150h305v-150h-35v-367h86v133h197v-283h-553zM474 478h-88l47 189h138z" />
    <glyph glyph-name="lcaron" unicode="&#x13e;" horiz-adv-x="464" 
d="M26 0v132h41v403h-41v132h245v-535h35v-132h-280zM389 500h-78l29 167h112z" />
    <glyph glyph-name="Ldot" unicode="&#x13f;" horiz-adv-x="615" 
d="M36 0v150h42v367h-42v150h305v-150h-35v-367h86v133h197v-283h-553zM447 483q28 0 47 -17.5t19 -42.5q0 -27 -19 -45t-47 -18t-47.5 18t-19.5 44t19 43.5t48 17.5z" />
    <glyph glyph-name="ldot" unicode="&#x140;" horiz-adv-x="460" 
d="M26 0v132h41v403h-41v132h245v-535h35v-132h-280zM381 424q27 0 47 -20t20 -47q0 -29 -20 -49t-48 -20q-29 0 -48.5 19.5t-19.5 48.5t20 48.5t49 19.5z" />
    <glyph glyph-name="Lslash" unicode="&#x141;" horiz-adv-x="615" 
d="M36 0v150h42v81l-68 -35v90l68 35v196h-42v150h305v-150h-35v-74l97 52v-90l-97 -52v-203h86v133h197v-283h-553z" />
    <glyph glyph-name="lslash" unicode="&#x142;" horiz-adv-x="346" 
d="M278 431v-299h35v-132h-280v132h41v155l-57 -40v95l57 40v156h-41v129h245v-139l52 37v-97z" />
    <glyph glyph-name="Nacute" unicode="&#x143;" horiz-adv-x="737" 
d="M665 517v-517h-260l-183 373v-223h42v-150h-234v150h42v367h-42v150h296l189 -385v235h-42v150h234v-150h-42zM419 723h-95l61 142h134z" />
    <glyph glyph-name="nacute" unicode="&#x144;" horiz-adv-x="625" 
d="M363 0v289q0 21 -11.5 33.5t-31.5 12.5q-21 0 -35 -13t-14 -33v-157h35v-132h-280v132h41v191h-41v132h245v-47q26 32 58 45.5t85 13.5q74 0 113.5 -37.5t39.5 -107.5v-191h41v-131h-245zM332 517h-90l71 150h128z" />
    <glyph glyph-name="Ncommaaccent" unicode="&#x145;" horiz-adv-x="737" 
d="M336 -189h-89l25 141h129zM665 517v-517h-260l-183 373v-223h42v-150h-234v150h42v367h-42v150h296l189 -385v235h-42v150h234v-150h-42z" />
    <glyph glyph-name="ncommaaccent" unicode="&#x146;" horiz-adv-x="625" 
d="M322 -189h-84l35 141h122zM363 0v289q0 21 -11.5 33.5t-31.5 12.5q-21 0 -35 -13t-14 -33v-157h35v-132h-280v132h41v191h-41v132h245v-47q26 32 58 45.5t85 13.5q74 0 113.5 -37.5t39.5 -107.5v-191h41v-131h-245z" />
    <glyph glyph-name="Ncaron" unicode="&#x147;" horiz-adv-x="737" 
d="M665 517v-517h-260l-183 373v-223h42v-150h-234v150h42v367h-42v150h296l189 -385v235h-42v150h234v-150h-42zM444 724h-115l-114 135h117l57 -77l56 77h110z" />
    <glyph glyph-name="ncaron" unicode="&#x148;" horiz-adv-x="625" 
d="M363 0v289q0 21 -11.5 33.5t-31.5 12.5q-21 0 -35 -13t-14 -33v-157h35v-132h-280v132h41v191h-41v132h245v-47q26 32 58 45.5t85 13.5q74 0 113.5 -37.5t39.5 -107.5v-191h41v-131h-245zM358 516h-96l-105 148h107l50 -84l49 84h100z" />
    <glyph glyph-name="napostrophe" unicode="&#x149;" horiz-adv-x="785" 
d="M136 442h-124l82 225h191zM523 0v289q0 21 -11.5 33.5t-31.5 12.5q-21 0 -35 -13t-14 -33v-157h35v-132h-280v132h41v191h-41v132h245v-47q26 32 58 45.5t85 13.5q74 0 113.5 -37.5t39.5 -107.5v-191h41v-131h-245z" />
    <glyph glyph-name="Omacron" unicode="&#x14c;" horiz-adv-x="651" 
d="M379 452q0 44 -12.5 63.5t-40.5 19.5t-40.5 -19t-12.5 -61v-240q0 -42 12 -61t40 -19q29 0 41.5 19t12.5 63v235zM44 418q0 46 2.5 74.5t9.5 51.5q20 74 84.5 107.5t186.5 33.5q106 0 165.5 -24t87.5 -78q7 -14 12.5 -30t8.5 -35.5t4.5 -44t1.5 -55.5v-166
q0 -45 -2.5 -73.5t-9.5 -52.5q-20 -74 -83.5 -107.5t-185.5 -33.5q-107 0 -167 24t-88 78q-15 28 -21 65t-6 100v166zM160 760v88h332v-88h-332z" />
    <glyph glyph-name="omacron" unicode="&#x14d;" horiz-adv-x="560" 
d="M324 268q0 36 -10 52t-33 16q-43 0 -43 -61v-94q0 -61 42 -61q23 0 33.5 16t10.5 52v80zM528 196q0 -58 -13 -98t-42.5 -64.5t-77 -35t-117.5 -10.5q-95 0 -148.5 22t-76.5 72q-6 13 -9.5 25t-6 28.5t-3 38.5t-0.5 54v32q0 58 13 97.5t42 64t76 35.5t116 11
q111 0 167 -29.5t72 -96.5q3 -11 4.5 -20.5t2 -21.5t1 -29t0.5 -43v-32zM131 542v82h302v-82h-302z" />
    <glyph glyph-name="Obreve" unicode="&#x14e;" horiz-adv-x="651" 
d="M379 452q0 44 -12.5 63.5t-40.5 19.5t-40.5 -19t-12.5 -61v-240q0 -42 12 -61t40 -19q29 0 41.5 19t12.5 63v235zM44 418q0 46 2.5 74.5t9.5 51.5q20 74 84.5 107.5t186.5 33.5q106 0 165.5 -24t87.5 -78q7 -14 12.5 -30t8.5 -35.5t4.5 -44t1.5 -55.5v-166
q0 -45 -2.5 -73.5t-9.5 -52.5q-20 -74 -83.5 -107.5t-185.5 -33.5q-107 0 -167 24t-88 78q-15 28 -21 65t-6 100v166zM488 865q-2 -35 -10.5 -56.5t-27.5 -41.5q-22 -22 -54 -34t-70 -12t-70 12t-55 35q-19 20 -27.5 41t-10.5 56h68q13 -52 95 -52q81 0 94 52h68z" />
    <glyph glyph-name="obreve" unicode="&#x14f;" horiz-adv-x="560" 
d="M324 268q0 36 -10 52t-33 16q-43 0 -43 -61v-94q0 -61 42 -61q23 0 33.5 16t10.5 52v80zM528 196q0 -58 -13 -98t-42.5 -64.5t-77 -35t-117.5 -10.5q-95 0 -148.5 22t-76.5 72q-6 13 -9.5 25t-6 28.5t-3 38.5t-0.5 54v32q0 58 13 97.5t42 64t76 35.5t116 11
q111 0 167 -29.5t72 -96.5q3 -11 4.5 -20.5t2 -21.5t1 -29t0.5 -43v-32zM424 667q-2 -38 -12 -63.5t-31 -46.5q-40 -40 -100 -40t-102 40q-21 22 -30.5 47t-11.5 63h65q14 -64 79 -64q31 0 51.5 17t26.5 47h65z" />
    <glyph glyph-name="Ohungarumlaut" unicode="&#x150;" horiz-adv-x="651" 
d="M379 452q0 44 -12.5 63.5t-40.5 19.5t-40.5 -19t-12.5 -61v-240q0 -42 12 -61t40 -19q29 0 41.5 19t12.5 63v235zM44 418q0 46 2.5 74.5t9.5 51.5q20 74 84.5 107.5t186.5 33.5q106 0 165.5 -24t87.5 -78q7 -14 12.5 -30t8.5 -35.5t4.5 -44t1.5 -55.5v-166
q0 -45 -2.5 -73.5t-9.5 -52.5q-20 -74 -83.5 -107.5t-185.5 -33.5q-107 0 -167 24t-88 78q-15 28 -21 65t-6 100v166zM263 723h-81l74 142h121zM437 723h-81l74 142h121z" />
    <glyph glyph-name="ohungarumlaut" unicode="&#x151;" horiz-adv-x="560" 
d="M324 268q0 36 -10 52t-33 16q-43 0 -43 -61v-94q0 -61 42 -61q23 0 33.5 16t10.5 52v80zM528 196q0 -58 -13 -98t-42.5 -64.5t-77 -35t-117.5 -10.5q-95 0 -148.5 22t-76.5 72q-6 13 -9.5 25t-6 28.5t-3 38.5t-0.5 54v32q0 58 13 97.5t42 64t76 35.5t116 11
q111 0 167 -29.5t72 -96.5q3 -11 4.5 -20.5t2 -21.5t1 -29t0.5 -43v-32zM225 517h-85l53 150h122zM391 517h-85l53 150h122z" />
    <glyph glyph-name="OE" unicode="&#x152;" horiz-adv-x="920" 
d="M379 452q0 44 -12.5 63.5t-40.5 19.5t-40.5 -19t-12.5 -61v-240q0 -42 12 -61t40 -19q29 0 41.5 19t12.5 63v235zM465 0q-4 0 -8 -2l-5 -1q-5 -2 -18 -4q-3 -1 -5 -1l-5 -1q-13 -2 -40.5 -4t-56.5 -2q-107 0 -167.5 24t-88.5 78q-15 28 -21 65t-6 100v166q0 46 2.5 74
t9.5 52q19 74 84 107.5t189 33.5q44 0 77.5 -4t62.5 -13q3 -1 6 -1h413v-200h-197v50h-84v-104h196v-150h-196v-113h84v73h197v-223h-423z" />
    <glyph glyph-name="oe" unicode="&#x153;" horiz-adv-x="848" 
d="M323 272q0 64 -43 64t-43 -61v-94q0 -61 43 -61t43 64v88zM626 318q0 16 -14 26t-36 10q-21 0 -35 -10t-14 -26v-32h99v32zM822 35q-27 -13 -53 -22t-55.5 -14.5t-64 -8t-76.5 -2.5q-26 0 -46.5 1t-37.5 3.5t-32 6t-31 9.5q-16 -6 -31 -9.5t-31.5 -6t-36 -3.5t-44.5 -1
q-100 0 -153 21.5t-77 71.5q-11 23 -15.5 51t-4.5 74v49q0 26 1.5 45t4.5 35q8 36 25.5 61t46.5 41t71.5 23.5t100.5 7.5q48 0 80 -5t64 -16q16 6 31 9.5t31.5 6t36 3.5t44.5 1q100 0 154.5 -22t78.5 -74q11 -22 15 -47.5t4 -68.5v-52h-289v-46q0 -17 12.5 -27t32.5 -10
q46 0 48 38h196v-123z" />
    <glyph glyph-name="Racute" unicode="&#x154;" horiz-adv-x="681" 
d="M343 413q29 0 40 11.5t11 40.5t-11 40.5t-40 11.5h-40v-104h40zM359 723h-95l61 142h134zM394 0v233q0 16 -12 23t-39 7h-40v-113h34v-150h-301v150h39v367h-39v150h459q66 0 96.5 -41t30.5 -129q0 -71 -20 -107.5t-68 -56.5q25 -8 42 -19t27.5 -28t14.5 -41.5t4 -60.5
v-34h41v-150h-269z" />
    <glyph glyph-name="racute" unicode="&#x155;" horiz-adv-x="416" 
d="M396 298q-28 18 -67 18q-63 0 -63 -65v-119h40v-132h-279l-1 132h40v191h-40v132h240v-66q13 43 30 61t46 18q26 0 54 -16v-154zM212 517h-90l71 150h128z" />
    <glyph glyph-name="Rcommaaccent" unicode="&#x156;" horiz-adv-x="681" 
d="M394 0v233q0 16 -12 23t-39 7h-40v-113h34v-150h-301v150h39v367h-39v150h459q66 0 96.5 -41t30.5 -129q0 -71 -20 -107.5t-68 -56.5q25 -8 42 -19t27.5 -28t14.5 -41.5t4 -60.5v-34h41v-150h-269zM366 -189h-89l25 141h129zM343 413q29 0 40 11.5t11 40.5t-11 40.5
t-40 11.5h-40v-104h40z" />
    <glyph glyph-name="rcommaaccent" unicode="&#x157;" horiz-adv-x="416" 
d="M162 -189h-84l35 141h122zM396 298q-28 18 -67 18q-63 0 -63 -65v-119h40v-132h-279l-1 132h40v191h-40v132h240v-66q13 43 30 61t46 18q26 0 54 -16v-154z" />
    <glyph glyph-name="Rcaron" unicode="&#x158;" horiz-adv-x="681" 
d="M343 413q29 0 40 11.5t11 40.5t-11 40.5t-40 11.5h-40v-104h40zM384 724h-115l-114 135h117l57 -77l56 77h110zM394 0v233q0 16 -12 23t-39 7h-40v-113h34v-150h-301v150h39v367h-39v150h459q66 0 96.5 -41t30.5 -129q0 -71 -20 -107.5t-68 -56.5q25 -8 42 -19t27.5 -28
t14.5 -41.5t4 -60.5v-34h41v-150h-269z" />
    <glyph glyph-name="rcaron" unicode="&#x159;" horiz-adv-x="416" 
d="M396 298q-28 18 -67 18q-63 0 -63 -65v-119h40v-132h-279l-1 132h40v191h-40v132h240v-66q13 43 30 61t46 18q26 0 54 -16v-154zM260 516h-96l-105 148h107l50 -84l49 84h100z" />
    <glyph glyph-name="Sacute" unicode="&#x15a;" horiz-adv-x="597" 
d="M358 475q0 23 -11.5 32.5t-38.5 9.5q-50 0 -50 -44t50 -44h136q31 0 58.5 -16.5t43.5 -43.5q13 -22 18.5 -54t5.5 -84v-18q0 -112 -32 -162.5t-101 -50.5h-407v195h212q0 -45 50 -45t50 48t-50 48h-124q-36 0 -65 15t-46 44q-15 24 -21 55.5t-6 82.5q0 55 4.5 90t15.5 60
q33 74 124 74h372v-192h-188zM339 723h-95l61 142h134z" />
    <glyph glyph-name="sacute" unicode="&#x15b;" horiz-adv-x="525" 
d="M500 146q-1 -44 -9 -72t-26 -44.5t-48.5 -23t-77.5 -6.5h-307v154h152q3 -19 13 -25t41 -6q32 0 45 6.5t13 22.5q0 26 -60 26h-15q-6 0 -19 -1h-13q-45 0 -75 7t-48 24t-26 44t-8 68q0 39 7.5 65t26 41.5t50 22t78.5 6.5h285v-154h-150q-2 17 -12.5 24t-35.5 7
q-45 0 -45 -28q0 -26 32 -26h70q48 0 78.5 -5.5t49 -20.5t26 -41t8.5 -65zM292 517h-90l71 150h128z" />
    <glyph glyph-name="Scircumflex" unicode="&#x15c;" horiz-adv-x="597" 
d="M358 475q0 23 -11.5 32.5t-38.5 9.5q-50 0 -50 -44t50 -44h136q31 0 58.5 -16.5t43.5 -43.5q13 -22 18.5 -54t5.5 -84v-18q0 -112 -32 -162.5t-101 -50.5h-407v195h212q0 -45 50 -45t50 48t-50 48h-124q-36 0 -65 15t-46 44q-15 24 -21 55.5t-6 82.5q0 55 4.5 90t15.5 60
q33 74 124 74h372v-192h-188zM366 724l-57 77l-56 -77h-110l111 135h115l114 -135h-117z" />
    <glyph glyph-name="scircumflex" unicode="&#x15d;" horiz-adv-x="525" 
d="M500 146q-1 -44 -9 -72t-26 -44.5t-48.5 -23t-77.5 -6.5h-307v154h152q3 -19 13 -25t41 -6q32 0 45 6.5t13 22.5q0 26 -60 26h-15q-6 0 -19 -1h-13q-45 0 -75 7t-48 24t-26 44t-8 68q0 39 7.5 65t26 41.5t50 22t78.5 6.5h285v-154h-150q-2 17 -12.5 24t-35.5 7
q-45 0 -45 -28q0 -26 32 -26h70q48 0 78.5 -5.5t49 -20.5t26 -41t8.5 -65zM320 516l-50 84l-49 -84h-100l105 148h96l105 -148h-107z" />
    <glyph glyph-name="Scedilla" unicode="&#x15e;" horiz-adv-x="597" 
d="M358 475q0 23 -11.5 32.5t-38.5 9.5q-50 0 -50 -44t50 -44h136q31 0 58.5 -16.5t43.5 -43.5q13 -22 18.5 -54t5.5 -84v-18q0 -112 -32 -162.5t-101 -50.5h-137l-9 -27q95 -10 95 -80q0 -35 -26.5 -55.5t-71.5 -20.5q-26 0 -49 9.5t-52 32.5l29 31q29 -28 59 -28
q29 0 29 32q0 18 -12.5 29t-32.5 11q-7 0 -14.5 -1t-23.5 -5l30 72h-221v195h212q0 -45 50 -45t50 48t-50 48h-124q-36 0 -65 15t-46 44q-15 24 -21 55.5t-6 82.5q0 55 4.5 90t15.5 60q33 74 124 74h372v-192h-188z" />
    <glyph glyph-name="scedilla" unicode="&#x15f;" horiz-adv-x="525" 
d="M329 301q-2 17 -12.5 24t-35.5 7q-45 0 -45 -28q0 -26 32 -26h70q48 0 79 -6t49.5 -21.5t26 -41t7.5 -64.5q0 -42 -7.5 -70t-26.5 -44.5t-50 -23.5t-77 -7h-69l-9 -27q95 -10 95 -80q0 -35 -26.5 -55.5t-71.5 -20.5q-26 0 -49 9.5t-52 32.5l29 31q29 -28 59 -28
q29 0 29 32q0 18 -12.5 29t-32.5 11q-7 0 -14.5 -1t-23.5 -5l30 72h-189v154h152q3 -19 13 -25t41 -6q32 0 45 6.5t13 22.5q0 26 -60 26h-15q-6 0 -19 -1h-13q-45 0 -75 7t-48 24t-26 44t-8 68q0 39 7.5 65t26 41.5t50 22t78.5 6.5h285v-154h-150z" />
    <glyph glyph-name="Scaron" unicode="&#x160;" horiz-adv-x="597" 
d="M358 475q0 23 -11.5 32.5t-38.5 9.5q-50 0 -50 -44t50 -44h136q31 0 58.5 -16.5t43.5 -43.5q13 -22 18.5 -54t5.5 -84v-18q0 -112 -32 -162.5t-101 -50.5h-407v195h212q0 -45 50 -45t50 48t-50 48h-124q-36 0 -65 15t-46 44q-15 24 -21 55.5t-6 82.5q0 55 4.5 90t15.5 60
q33 74 124 74h372v-192h-188zM364 724h-115l-114 135h117l57 -77l56 77h110z" />
    <glyph glyph-name="scaron" unicode="&#x161;" horiz-adv-x="525" 
d="M500 146q-1 -44 -9 -72t-26 -44.5t-48.5 -23t-77.5 -6.5h-307v154h152q3 -19 13 -25t41 -6q32 0 45 6.5t13 22.5q0 26 -60 26h-15q-6 0 -19 -1h-13q-45 0 -75 7t-48 24t-26 44t-8 68q0 39 7.5 65t26 41.5t50 22t78.5 6.5h285v-154h-150q-2 17 -12.5 24t-35.5 7
q-45 0 -45 -28q0 -26 32 -26h70q48 0 78.5 -5.5t49 -20.5t26 -41t8.5 -65zM314 516h-96l-105 148h107l50 -84l49 84h100z" />
    <glyph glyph-name="Tcommaaccent" unicode="&#x162;" horiz-adv-x="684" 
d="M342 -189h-89l25 141h129zM513 419v98h-57v-367h60v-150h-348v150h60v367h-57v-98h-150v248h642v-248h-150z" />
    <glyph glyph-name="tcommaaccent" unicode="&#x163;" horiz-adv-x="346" 
d="M196 -189h-84l35 141h122zM320 4q-23 -8 -55.5 -12t-70.5 -4q-67 0 -102 36t-35 105v194h-40v132h40v113h204v-113h59v-132h-59v-121q0 -33 13.5 -47.5t45.5 -14.5v-136z" />
    <glyph glyph-name="Tcaron" unicode="&#x164;" horiz-adv-x="684" 
d="M513 419v98h-57v-367h60v-150h-348v150h60v367h-57v-98h-150v248h642v-248h-150zM399 724h-115l-114 135h117l57 -77l56 77h110z" />
    <glyph glyph-name="tcaron" unicode="&#x165;" horiz-adv-x="454" 
d="M320 4q-23 -8 -55.5 -12t-70.5 -4q-67 0 -102 36t-35 105v194h-40v132h40v113h204v-113h59v-132h-59v-121q0 -33 13.5 -47.5t45.5 -14.5v-136zM379 511h-78l29 167h112z" />
    <glyph glyph-name="Tbar" unicode="&#x166;" horiz-adv-x="684" 
d="M513 434v83h-57v-140h115v-81h-115v-146h60v-150h-348v150h60v146h-115v81h115v140h-57v-83h-150v233h642v-233h-150z" />
    <glyph glyph-name="tbar" unicode="&#x167;" horiz-adv-x="346" 
d="M320 4q-24 -8 -56 -12t-69 -4q-68 0 -103 36t-35 105v75h-40v61h40v58h-40v132h40v113h204v-113h59v-132h-59v-58h59v-61h-59v-2q0 -31 13.5 -43.5t45.5 -12.5v-142z" />
    <glyph glyph-name="Utilde" unicode="&#x168;" horiz-adv-x="731" 
d="M659 516v-361q0 -170 -297 -170q-142 0 -214 42.5t-72 127.5v361h-42v151h305v-151h-35v-323q0 -34 13 -46t50 -12q38 0 51 13t13 51v317h-35v151h305v-151h-42zM553 842q-16 -30 -30 -50.5t-28 -33t-28.5 -18t-31.5 -5.5q-16 0 -33 4.5t-48 18.5q-28 11 -41 15t-25 4
t-22 -9.5t-23 -34.5l-63 34q14 27 21.5 40t15.5 24q32 44 74 44q15 0 31.5 -5t42.5 -17t42.5 -17t30.5 -5q16 0 25.5 9t25.5 39z" />
    <glyph glyph-name="utilde" unicode="&#x169;" horiz-adv-x="625" 
d="M354 0v47q-26 -32 -58.5 -45.5t-84.5 -13.5q-74 0 -113.5 37.5t-39.5 107.5v190h-41v132h245v-289q0 -21 11.5 -33.5t31.5 -12.5q21 0 35 13t14 33v157h-35v132h239v-326h41v-129h-245zM472 614q-29 -45 -60 -69t-60 -24q-16 0 -32.5 7.5t-41.5 25.5q-19 14 -29 19t-19 5
t-16 -6t-23 -27q-4 -5 -6.5 -8t-5.5 -6l-48 41q37 54 61.5 74.5t51.5 20.5q16 0 32.5 -7.5t40.5 -24.5q20 -14 31 -19.5t22 -5.5t18 5t21 22q2 3 4.5 5t10.5 12z" />
    <glyph glyph-name="Umacron" unicode="&#x16a;" horiz-adv-x="731" 
d="M659 516v-361q0 -170 -297 -170q-142 0 -214 42.5t-72 127.5v361h-42v151h305v-151h-35v-323q0 -34 13 -46t50 -12q38 0 51 13t13 51v317h-35v151h305v-151h-42zM200 760v88h332v-88h-332z" />
    <glyph glyph-name="umacron" unicode="&#x16b;" horiz-adv-x="625" 
d="M354 0v47q-26 -32 -58.5 -45.5t-84.5 -13.5q-74 0 -113.5 37.5t-39.5 107.5v190h-41v132h245v-289q0 -21 11.5 -33.5t31.5 -12.5q21 0 35 13t14 33v157h-35v132h239v-326h41v-129h-245zM153 542v82h302v-82h-302z" />
    <glyph glyph-name="Ubreve" unicode="&#x16c;" horiz-adv-x="731" 
d="M659 516v-361q0 -170 -297 -170q-142 0 -214 42.5t-72 127.5v361h-42v151h305v-151h-35v-323q0 -34 13 -46t50 -12q38 0 51 13t13 51v317h-35v151h305v-151h-42zM527 865q-2 -35 -10.5 -56.5t-27.5 -41.5q-22 -22 -54 -34t-70 -12t-70 12t-55 35q-19 20 -27.5 41
t-10.5 56h68q13 -52 95 -52q81 0 94 52h68z" />
    <glyph glyph-name="ubreve" unicode="&#x16d;" horiz-adv-x="625" 
d="M354 0v47q-26 -32 -58.5 -45.5t-84.5 -13.5q-74 0 -113.5 37.5t-39.5 107.5v190h-41v132h245v-289q0 -21 11.5 -33.5t31.5 -12.5q21 0 35 13t14 33v157h-35v132h239v-326h41v-129h-245zM444 667q-2 -38 -12 -63.5t-31 -46.5q-40 -40 -100 -40t-102 40q-21 22 -30.5 47
t-11.5 63h65q14 -64 79 -64q31 0 51.5 17t26.5 47h65z" />
    <glyph glyph-name="Uring" unicode="&#x16e;" horiz-adv-x="731" 
d="M659 516v-361q0 -170 -297 -170q-142 0 -214 42.5t-72 127.5v361h-42v151h305v-151h-35v-323q0 -34 13 -46t50 -12q38 0 51 13t13 51v317h-35v151h305v-151h-42zM367 857q-20 0 -36 -14t-16 -33t15.5 -33t35.5 -14t36 14t16 33t-15.5 33t-35.5 14zM367 914
q22 0 41.5 -8.5t34.5 -22.5t23.5 -32.5t8.5 -39.5t-8.5 -40.5t-23.5 -33.5t-35 -22.5t-42 -8.5t-41.5 8t-34.5 22.5t-23.5 33t-8.5 39.5t8.5 40.5t23.5 33.5t35 22.5t42 8.5z" />
    <glyph glyph-name="uring" unicode="&#x16f;" horiz-adv-x="625" 
d="M354 0v47q-26 -32 -58.5 -45.5t-84.5 -13.5q-74 0 -113.5 37.5t-39.5 107.5v190h-41v132h245v-289q0 -21 11.5 -33.5t31.5 -12.5q21 0 35 13t14 33v157h-35v132h239v-326h41v-129h-245zM306 638q-16 0 -28 -12t-12 -28t11.5 -28t27.5 -12t28 12t12 28t-11.5 28t-27.5 12z
M306 695q40 0 68 -28t28 -68q0 -42 -28 -70t-69 -28q-40 0 -68 28t-28 68q0 41 28 69.5t69 28.5z" />
    <glyph glyph-name="Uhungarumlaut" unicode="&#x170;" horiz-adv-x="731" 
d="M659 516v-361q0 -170 -297 -170q-142 0 -214 42.5t-72 127.5v361h-42v151h305v-151h-35v-323q0 -34 13 -46t50 -12q38 0 51 13t13 51v317h-35v151h305v-151h-42zM312 723h-81l74 142h121zM486 723h-81l74 142h121z" />
    <glyph glyph-name="uhungarumlaut" unicode="&#x171;" horiz-adv-x="625" 
d="M354 0v47q-26 -32 -58.5 -45.5t-84.5 -13.5q-74 0 -113.5 37.5t-39.5 107.5v190h-41v132h245v-289q0 -21 11.5 -33.5t31.5 -12.5q21 0 35 13t14 33v157h-35v132h239v-326h41v-129h-245zM248 517h-85l53 150h122zM414 517h-85l53 150h122z" />
    <glyph glyph-name="Uogonek" unicode="&#x172;" horiz-adv-x="731" 
d="M659 516v-361q0 -61 -34.5 -98t-109.5 -57q-28 -34 -28 -69q0 -19 10 -26.5t33 -7.5q20 0 38 4t38 14l14 -46q-36 -29 -63.5 -40.5t-60.5 -11.5q-47 0 -76 25t-29 66q0 20 9.5 37.5t32.5 42.5q-22 -2 -37 -2.5t-35 -0.5q-141 0 -213 42.5t-72 127.5v361h-42v151h305v-151
h-35v-323q0 -34 13 -46t50 -12q38 0 51 13t13 51v317h-35v151h305v-151h-42z" />
    <glyph glyph-name="uogonek" unicode="&#x173;" horiz-adv-x="625" 
d="M599 -131q-37 -29 -64.5 -40.5t-59.5 -11.5q-47 0 -76 25t-29 66q0 23 12.5 43.5t43.5 48.5h-72v47q-26 -32 -58.5 -45.5t-84.5 -13.5q-73 0 -113 38t-40 107v190h-41v132h245v-289q0 -21 11.5 -33.5t31.5 -12.5q21 0 35 13t14 33v157h-35v132h239v-326h41v-129h-104
q-29 -33 -29 -69q0 -19 10 -26.5t33 -7.5q20 0 37.5 4t38.5 14z" />
    <glyph glyph-name="Wcircumflex" unicode="&#x174;" horiz-adv-x="893" 
d="M844 517l-154 -517h-214l-43 201l-60 -201h-214l-110 517h-42v150h259v-150l45 -214l65 214h-52v150h311v-150h-52l45 -214l64 214v150h194v-150h-42zM499 724l-57 77l-56 -77h-110l111 135h115l114 -135h-117z" />
    <glyph glyph-name="wcircumflex" unicode="&#x175;" horiz-adv-x="812" 
d="M775 324l-102 -324h-205l-59 190l-60 -190h-205l-101 323h-36v132h251v-132l36 -119l38 120v131h229v-131l38 -121l37 121v131h169v-131h-30zM452 516l-50 84l-49 -84h-100l105 148h96l105 -148h-107z" />
    <glyph glyph-name="Ycircumflex" unicode="&#x176;" horiz-adv-x="589" 
d="M536 517l-127 -288v-79h69v-150h-366v150h69v79l-128 288h-46v150h290v-150l38 -86l38 86v150h209v-150h-46zM388 724l-57 77l-56 -77h-110l111 135h115l114 -135h-117z" />
    <glyph glyph-name="ycircumflex" unicode="&#x177;" horiz-adv-x="540" 
d="M502 323l-130 -274h-1v-60h45v-132h-294v132h45v62l-129 272h-31v132h253v-132l47 -99l47 99v132h179v-132h-31zM356 516l-50 84l-49 -84h-100l105 148h96l105 -148h-107z" />
    <glyph glyph-name="Ydieresis" unicode="&#x178;" horiz-adv-x="589" 
d="M536 517l-127 -288v-79h69v-150h-366v150h69v79l-128 288h-46v150h290v-150l38 -86l38 86v150h209v-150h-46zM198 877q31 0 52.5 -21.5t21.5 -52.5t-21.5 -52.5t-52.5 -21.5t-52.5 21.5t-21.5 52.5t21.5 52.5t52.5 21.5zM435 877q31 0 52.5 -21.5t21.5 -52.5t-21.5 -52.5
t-52.5 -21.5t-52.5 21.5t-21.5 52.5t21.5 52.5t52.5 21.5z" />
    <glyph glyph-name="Zacute" unicode="&#x179;" horiz-adv-x="616" 
d="M25 0v143l279 374h-115v-87h-164v237h566v-142l-281 -375h117v87h164v-237h-566zM344 723h-95l61 142h134z" />
    <glyph glyph-name="zacute" unicode="&#x17a;" horiz-adv-x="497" 
d="M24 0v130l189 193h-64l-28 -43h-97v175h449v-132l-187 -191h62l28 43h97v-175h-449zM292 517h-90l71 150h128z" />
    <glyph glyph-name="Zdotaccent" unicode="&#x17b;" horiz-adv-x="616" 
d="M25 0v143l279 374h-115v-87h-164v237h566v-142l-281 -375h117v87h164v-237h-566zM323 877q31 0 52.5 -21.5t21.5 -52.5t-21.5 -52.5t-52.5 -21.5t-52.5 21.5t-21.5 52.5t21.5 52.5t52.5 21.5z" />
    <glyph glyph-name="zdotaccent" unicode="&#x17c;" horiz-adv-x="497" 
d="M24 0v130l189 193h-64l-28 -43h-97v175h449v-132l-187 -191h62l28 43h97v-175h-449zM260 661q32 0 52 -19.5t20 -51.5t-20 -52.5t-52 -20.5t-52 20t-20 52t20 52t52 20z" />
    <glyph glyph-name="Zcaron" unicode="&#x17d;" horiz-adv-x="616" 
d="M25 0v143l279 374h-115v-87h-164v237h566v-142l-281 -375h117v87h164v-237h-566zM373 724h-115l-114 135h117l57 -77l56 77h110z" />
    <glyph glyph-name="zcaron" unicode="&#x17e;" horiz-adv-x="497" 
d="M24 0v130l189 193h-64l-28 -43h-97v175h449v-132l-187 -191h62l28 43h97v-175h-449zM314 516h-96l-105 148h107l50 -84l49 84h100z" />
    <glyph glyph-name="florin" unicode="&#x192;" 
d="M567 473q-4 1 -5.5 1t-4.5 2q-25 6 -39 8.5t-26 2.5q-28 0 -31 -25l-12 -77h89l-11 -102h-91l-38 -279q-6 -45 -18.5 -75.5t-34 -49t-54 -27t-77.5 -8.5q-38 0 -75.5 6t-82.5 19l33 122q34 -9 50 -12.5t22 -3.5q24 0 32 26q4 10 25 156l18 126h-84l11 102h86q5 39 9 65.5
t8 45t8 30.5t10 23q20 36 58 52.5t101 16.5q35 0 70 -5.5t85 -18.5z" />
    <glyph glyph-name="Scommaaccent" unicode="&#x218;" horiz-adv-x="597" 
d="M304 -189h-89l25 141h129zM358 475q0 23 -11.5 32.5t-38.5 9.5q-50 0 -50 -44t50 -44h136q31 0 58.5 -16.5t43.5 -43.5q13 -22 18.5 -54t5.5 -84v-18q0 -112 -32 -162.5t-101 -50.5h-407v195h212q0 -45 50 -45t50 48t-50 48h-124q-36 0 -65 15t-46 44q-15 24 -21 55.5
t-6 82.5q0 55 4.5 90t15.5 60q33 74 124 74h372v-192h-188z" />
    <glyph glyph-name="scommaaccent" unicode="&#x219;" horiz-adv-x="525" 
d="M329 301q-2 17 -12.5 24t-35.5 7q-45 0 -45 -28q0 -26 32 -26h70q48 0 79 -6t49.5 -21.5t26 -41t7.5 -64.5q0 -42 -7.5 -70t-26.5 -44.5t-50 -23.5t-77 -7h-307v154h152q3 -19 13 -25t41 -6q32 0 45 6.5t13 22.5q0 26 -60 26h-15q-6 0 -19 -1h-13q-45 0 -75 7t-48 24
t-26 44t-8 68q0 39 7.5 65t26 41.5t50 22t78.5 6.5h285v-154h-150zM266 -189h-84l35 141h122z" />
    <glyph glyph-name="uni021A" unicode="&#x21a;" horiz-adv-x="684" 
d="M342 -189h-89l25 141h129zM513 419v98h-57v-367h60v-150h-348v150h60v367h-57v-98h-150v248h642v-248h-150z" />
    <glyph glyph-name="uni021B" unicode="&#x21b;" horiz-adv-x="346" 
d="M196 -189h-84l35 141h122zM320 4q-23 -8 -55.5 -12t-70.5 -4q-67 0 -102 36t-35 105v194h-40v132h40v113h204v-113h59v-132h-59v-121q0 -33 13.5 -47.5t45.5 -14.5v-136z" />
    <glyph glyph-name="circumflex" unicode="&#x2c6;" horiz-adv-x="500" 
d="M296 516l-50 84l-49 -84h-100l105 148h96l105 -148h-107z" />
    <glyph glyph-name="caron" unicode="&#x2c7;" horiz-adv-x="500" 
d="M298 516h-96l-105 148h107l50 -84l49 84h100z" />
    <glyph glyph-name="uni02C9" unicode="&#x2c9;" horiz-adv-x="500" 
d="M99 542v82h302v-82h-302z" />
    <glyph glyph-name="breve" unicode="&#x2d8;" horiz-adv-x="500" 
d="M394 667q-2 -38 -12 -63.5t-31 -46.5q-40 -40 -100 -40t-102 40q-21 22 -30.5 47t-11.5 63h65q14 -64 79 -64q31 0 51.5 17t26.5 47h65z" />
    <glyph glyph-name="dotaccent" unicode="&#x2d9;" horiz-adv-x="500" 
d="M250 661q32 0 52 -19.5t20 -51.5t-20 -52.5t-52 -20.5t-52 20t-20 52t20 52t52 20z" />
    <glyph glyph-name="ring" unicode="&#x2da;" horiz-adv-x="500" 
d="M250 638q-16 0 -28 -12t-12 -28t11.5 -28t27.5 -12t28 12t12 28t-11.5 28t-27.5 12zM250 695q40 0 68 -28t28 -68q0 -42 -28 -70t-69 -28q-40 0 -68 28t-28 68q0 41 28 69.5t69 28.5z" />
    <glyph glyph-name="ogonek" unicode="&#x2db;" horiz-adv-x="500" 
d="M498 -131q-37 -29 -64.5 -40.5t-59.5 -11.5q-47 0 -76 25t-29 66q0 23 12.5 43.5t43.5 48.5h69q-29 -33 -29 -69q0 -19 10 -26.5t33 -7.5q20 0 37.5 4t38.5 14z" />
    <glyph glyph-name="tilde" unicode="&#x2dc;" horiz-adv-x="500" 
d="M420 614q-29 -45 -60 -69t-60 -24q-16 0 -32.5 7.5t-41.5 25.5q-19 14 -29 19t-19 5t-16 -6t-23 -27q-4 -5 -6.5 -8t-5.5 -6l-48 41q37 54 61.5 74.5t51.5 20.5q16 0 32.5 -7.5t40.5 -24.5q20 -14 31 -19.5t22 -5.5t18 5t21 22q2 3 4.5 5t10.5 12z" />
    <glyph glyph-name="hungarumlaut" unicode="&#x2dd;" horiz-adv-x="500" 
d="M164 517h-85l53 150h122zM330 517h-85l53 150h122z" />
    <glyph glyph-name="Delta" unicode="&#x394;" horiz-adv-x="657" 
d="M298 517h-19l-99 -367h217zM25 0v150l131 517h337l139 -517v-150h-607z" />
    <glyph glyph-name="Omega" unicode="&#x3a9;" horiz-adv-x="770" 
d="M420 0v222q26 33 40.5 53.5t21.5 37t8.5 34.5t1.5 48q0 44 -3.5 66.5t-11.5 36.5q-21 37 -92 37q-32 0 -52.5 -6t-32.5 -20.5t-17 -40t-5 -64.5q0 -31 1.5 -51t6.5 -35.5t14.5 -30.5t26.5 -36q6 -8 12 -14.5t11 -14.5v-222h-320v222h125v-72h60v72q-24 13 -42 23.5
t-31 19t-22.5 16t-17.5 15.5q-27 28 -39.5 63t-12.5 84q0 145 96 200q38 22 96 32t145 10q75 0 125.5 -7t87.5 -23q62 -26 91 -78t29 -137q0 -51 -13.5 -86.5t-42.5 -61.5q-14 -14 -37.5 -29t-71.5 -41v-72h60v72h125v-222h-320z" />
    <glyph glyph-name="mu" unicode="&#x3bc;" horiz-adv-x="634" 
d="M363 0v20q-14 -32 -49 -32q-14 0 -20.5 3.5t-13.5 14.5q-2 5 -3.5 7t-5.5 7v-143h-204v447h-41v131h245v-289q0 -20 11.5 -33t31.5 -13t34.5 13t14.5 33v157h-35v132h239v-326h41v-129h-245z" />
    <glyph glyph-name="pi" unicode="&#x3c0;" horiz-adv-x="741" 
d="M691 4q-23 -8 -55.5 -12t-70.5 -4q-67 0 -102 36t-35 105v194h-114v-191h40v-132h-284v132h40v191h-60v132h641v-132h-59v-121q0 -33 13.5 -47.5t45.5 -14.5v-136z" />
    <glyph glyph-name="endash" unicode="&#x2013;" horiz-adv-x="500" 
d="M25 185v119h450v-119h-450z" />
    <glyph glyph-name="emdash" unicode="&#x2014;" horiz-adv-x="1000" 
d="M25 185v119h950v-119h-950z" />
    <glyph glyph-name="quoteleft" unicode="&#x2018;" horiz-adv-x="365" 
d="M226 390h-191l166 277h124z" />
    <glyph glyph-name="quoteright" unicode="&#x2019;" horiz-adv-x="365" 
d="M164 390h-124l99 277h191z" />
    <glyph glyph-name="quotesinglbase" unicode="&#x201a;" horiz-adv-x="365" 
d="M164 -89h-124l99 277h191z" />
    <glyph glyph-name="quotedblleft" unicode="&#x201c;" horiz-adv-x="609" 
d="M226 390h-191l166 277h124zM470 390h-191l166 277h124z" />
    <glyph glyph-name="quotedblright" unicode="&#x201d;" horiz-adv-x="609" 
d="M164 390h-124l99 277h191zM408 390h-124l99 277h191z" />
    <glyph glyph-name="quotedblbase" unicode="&#x201e;" horiz-adv-x="609" 
d="M164 -89h-124l99 277h191zM408 -89h-124l99 277h191z" />
    <glyph glyph-name="dagger" unicode="&#x2020;" 
d="M369 342l39 -502h-207l39 502l-200 -27v187l195 -33l-26 198h192l-27 -198l195 33v-187z" />
    <glyph glyph-name="daggerdbl" unicode="&#x2021;" 
d="M372 62l27 -222h-188l28 222l-199 -34v187l200 -26l-8 91l7 65l-199 -26v186l195 -32l-27 194h195l-27 -194l194 32v-186l-198 26l7 -72l-8 -84l199 26v-187z" />
    <glyph glyph-name="bullet" unicode="&#x2022;" 
d="M304 426q33 0 62 -12.5t50.5 -34t34 -50t12.5 -61.5t-12.5 -62t-34 -50.5t-50.5 -34t-62 -12.5t-62 12.5t-50 33.5t-33.5 50t-12.5 62t12.5 62t34 50.5t50 34t61.5 12.5z" />
    <glyph glyph-name="ellipsis" unicode="&#x2026;" horiz-adv-x="881" 
d="M148 208q22 0 42 -8.5t35 -23.5t23.5 -34.5t8.5 -41.5q0 -23 -8.5 -43t-23 -34.5t-34.5 -23t-43 -8.5t-42.5 8.5t-34 23t-23 34t-8.5 42.5q0 22 8.5 42t23 35t34 23.5t42.5 8.5zM440 208q22 0 42 -8.5t35 -23.5t23.5 -34.5t8.5 -41.5q0 -23 -8.5 -43t-23 -34.5t-34.5 -23
t-43 -8.5t-42.5 8.5t-34 23t-23 34t-8.5 42.5q0 22 8.5 42t23 35t34 23.5t42.5 8.5zM732 208q22 0 42 -8.5t35 -23.5t23.5 -34.5t8.5 -41.5q0 -23 -8.5 -43t-23 -34.5t-34.5 -23t-43 -8.5t-42.5 8.5t-34 23t-23 34t-8.5 42.5q0 22 8.5 42t23 35t34 23.5t42.5 8.5z" />
    <glyph glyph-name="perthousand" unicode="&#x2030;" horiz-adv-x="1301" 
d="M1114 259q0 7 -2 15q-6 29 -29 29q-31 0 -31 -57v-135q0 -7 2 -15q6 -29 29 -29q31 0 31 57v135zM249 563q0 7 -2 15q-6 29 -29 29q-31 0 -31 -57v-135q0 -7 2 -15q6 -29 29 -29q31 0 31 57v135zM719 259q0 7 -2 15q-6 29 -29 29q-31 0 -31 -57v-135q0 -7 2 -15
q6 -29 29 -29q31 0 31 57v135zM288 -26h-90l402 710h91zM50 538q0 41 8.5 69t28 45.5t52 25t79.5 7.5t79.5 -7.5t52 -25t28 -45.5t8.5 -69v-98q0 -41 -8.5 -69.5t-28 -45.5t-52 -24.5t-79.5 -7.5t-79.5 7.5t-52 24.5t-28 45.5t-8.5 69.5v98zM520 234q0 41 8.5 69t28 45.5
t52 25t79.5 7.5t79.5 -7.5t52 -25t28 -45.5t8.5 -69v-98q0 -41 -8.5 -69.5t-28 -45.5t-52 -24.5t-79.5 -7.5t-79.5 7.5t-52 24.5t-28 45.5t-8.5 69.5v98zM915 234q0 41 8.5 69t28 45.5t52 25t79.5 7.5t79.5 -7.5t52 -25t28 -45.5t8.5 -69v-98q0 -41 -8.5 -69.5t-28 -45.5
t-52 -24.5t-79.5 -7.5t-79.5 7.5t-52 24.5t-28 45.5t-8.5 69.5v98z" />
    <glyph glyph-name="guilsinglleft" unicode="&#x2039;" horiz-adv-x="335" 
d="M170 29l-130 230l131 227h104l-65 -227l65 -230h-105z" />
    <glyph glyph-name="guilsinglright" unicode="&#x203a;" horiz-adv-x="335" 
d="M170 29l-130 230l131 227h104l-65 -227l65 -230h-105z" />
    <glyph glyph-name="fraction" unicode="&#x2044;" horiz-adv-x="210" 
d="M-41 -16h-89l401 690h89z" />
    <glyph glyph-name="Euro" unicode="&#x20ac;" 
d="M272 0q-124 0 -170 79q-15 26 -21.5 57.5t-7.5 84.5h-66l12 50h54v67h-66l12 50h54v37q0 86 53 135t146 49h308v-190h-168q-2 25 -19.5 39t-46.5 14t-47 -15t-18 -38v-31h131l-13 -50h-118v-67h111l-13 -50h-98v-31q0 -23 18 -38t47 -15t46.5 14t19.5 39h168v-190h-308z
" />
    <glyph glyph-name="afii61289" unicode="&#x2113;" horiz-adv-x="434" 
d="M44 138q-14 13 -25.5 34t-11.5 56q12 6 19.5 9t13 5t9.5 4l10 5q4 70 22.5 132.5t44.5 114.5t57.5 91t61.5 63q20 16 41 23.5t41 7.5q40 0 68 -31t28 -94q0 -49 -21 -95t-53.5 -88t-73 -80.5t-79.5 -71.5q0 -5 -0.5 -9.5t-0.5 -9.5q0 -46 12 -71.5t30 -25.5q17 0 36.5 26
t36.5 84q12 3 26 3q19 0 37.5 -7.5t30.5 -26.5q-7 -37 -22 -72t-37.5 -62t-52 -43.5t-64.5 -16.5q-22 0 -46.5 9.5t-47 29t-40.5 48t-28 67.5zM199 341q29 24 52.5 54.5t40 60.5t25.5 57t9 45q0 26 -11 26q-7 0 -15 -11q-9 -12 -22.5 -34.5t-28 -52.5t-28 -66.5t-22.5 -78.5
z" />
    <glyph glyph-name="trademark" unicode="&#x2122;" horiz-adv-x="1094" 
d="M384 521v58h-51v-217h36v-88h-206v88h36v217h-51v-58h-88v146h412v-146h-88zM850 274v88h25v192l-91 -280h-64l-91 280v-192h25v-88h-138v88h25v217h-25v88h209l53 -162l52 162h204v-88h-25v-217h25v-88h-184z" />
    <glyph glyph-name="uni2126" unicode="&#x2126;" horiz-adv-x="770" 
d="M420 0v222q26 33 40.5 53.5t21.5 37t8.5 34.5t1.5 48q0 44 -3.5 66.5t-11.5 36.5q-21 37 -92 37q-32 0 -52.5 -6t-32.5 -20.5t-17 -40t-5 -64.5q0 -31 1.5 -51t6.5 -35.5t14.5 -30.5t26.5 -36q6 -8 12 -14.5t11 -14.5v-222h-320v222h125v-72h60v72q-24 13 -42 23.5
t-31 19t-22.5 16t-17.5 15.5q-27 28 -39.5 63t-12.5 84q0 145 96 200q38 22 96 32t145 10q75 0 125.5 -7t87.5 -23q62 -26 91 -78t29 -137q0 -51 -13.5 -86.5t-42.5 -61.5q-14 -14 -37.5 -29t-71.5 -41v-72h60v72h125v-222h-320z" />
    <glyph glyph-name="estimated" unicode="&#x212e;" horiz-adv-x="763" 
d="M539 386q5 0 9 6q2 3 3 6q0 49 -16 79.5t-42 51.5q-25 20 -54.5 27t-57.5 7q-27 0 -55 -8.5t-52 -27.5q-27 -21 -45 -55.5t-18 -85.5h328zM731 295h-520v-37q0 -42 12 -72.5t32 -51.5q26 -28 60 -40.5t66 -12.5q44 0 82 8.5t68 27.5t53 50t37 76q16 6 35 6q16 0 31 -5.5
t26 -16.5q-3 -35 -24 -76.5t-62.5 -77.5t-102.5 -60t-143 -24q-78 0 -142 29t-110 76t-71.5 106.5t-25.5 121.5q0 61 25.5 121t71.5 107t110 76t142 29t142 -29t110.5 -76.5t72 -107.5t25.5 -121v-26z" />
    <glyph glyph-name="partialdiff" unicode="&#x2202;" horiz-adv-x="560" 
d="M324 268q0 36 -10 52t-33 16q-43 0 -43 -61v-94q0 -61 42 -61q23 0 33.5 16t10.5 52v80zM67 527q10 53 21.5 79.5t34.5 43.5q47 35 155 35q59 0 107 -14t74 -38q37 -34 53 -90t16 -149v-198q0 -58 -13 -98t-42.5 -64.5t-77 -35t-117.5 -10.5q-95 0 -148.5 22t-76.5 72
q-6 13 -9.5 25t-6 28.5t-3 38.5t-0.5 54v32q0 47 7 79.5t24 56.5q46 72 155 72q25 0 40.5 -3t38.5 -13l12 -5q4 -1 13 -5v22q0 58 -15 84t-48 26q-25 0 -35 -9t-17 -38h-142z" />
    <glyph glyph-name="uni2206" unicode="&#x2206;" horiz-adv-x="657" 
d="M298 517h-19l-99 -367h217zM25 0v150l131 517h337l139 -517v-150h-607z" />
    <glyph glyph-name="product" unicode="&#x220f;" horiz-adv-x="881" 
d="M551 -119v42h73v818h-367v-818h73v-42h-236v42h73v818h-73v42h693v-42h-73v-818h73v-42h-236z" />
    <glyph glyph-name="summation" unicode="&#x2211;" horiz-adv-x="750" 
d="M46 -119v56l414 401l-383 413v32h608v-286h-34l-39 191q-11 53 -51 53h-332l336 -359l-417 -403h520v281h36v-379h-658z" />
    <glyph glyph-name="minus" unicode="&#x2212;" horiz-adv-x="525" 
d="M50 248v114h425v-113z" />
    <glyph glyph-name="uni2215" unicode="&#x2215;" horiz-adv-x="487" 
d="M150 -16h-135l312 683h135z" />
    <glyph glyph-name="uni2219" unicode="&#x2219;" horiz-adv-x="346" 
d="M172 408q21 0 40 -8t33.5 -22.5t22.5 -33t8 -39.5t-8.5 -39.5t-23 -32.5t-33 -22.5t-39.5 -8.5t-39.5 8t-32.5 22t-22 33t-8 40t8 40t21.5 33t32.5 22t40 8z" />
    <glyph glyph-name="radical" unicode="&#x221a;" horiz-adv-x="635" 
d="M371 -204h-31l-218 420l-73 -28v25l126 49l175 -340l232 894h53z" />
    <glyph glyph-name="infinity" unicode="&#x221e;" horiz-adv-x="750" 
d="M316 311q-19 35 -41.5 49.5t-57.5 14.5q-42 0 -67 -24.5t-25 -66.5q0 -21 6 -39t17 -31.5t25 -21t31 -7.5q32 0 59 30.5t53 95.5zM439 264q-1 -2 -1 -4q0 -3 4 -8.5t10 -12t13 -13t13 -11.5q11 -8 23 -11t31 -3q45 0 70 24t25 67q0 21 -6.5 39t-17.5 32t-26 22t-31 8
q-17 0 -33 -11t-34 -35q-3 -6 -8.5 -16.5t-11 -22t-10.5 -22t-7 -15.5zM367 411q19 25 37 42t36.5 27.5t38.5 15t45 4.5q42 0 76 -15.5t58 -43.5t37.5 -67.5t13.5 -87.5q0 -46 -13 -84.5t-36 -67t-55 -44.5t-69 -16q-94 0 -153 93q-37 -51 -72 -72t-83 -21q-42 0 -76.5 15.5
t-59.5 44t-38.5 67.5t-13.5 87q0 46 13 85t36.5 67t56 44t71.5 16q45 0 80 -20.5t70 -68.5z" />
    <glyph glyph-name="integral" unicode="&#x222b;" horiz-adv-x="400" 
d="M144 418q-4 35 -5 57t-1 51q0 81 9.5 144.5t27.5 108t43.5 68t58.5 23.5q17 0 32.5 -6t27.5 -16.5t19 -24t7 -28.5q0 -23 -15.5 -40t-35.5 -17t-35 13.5t-15 33.5q0 5 2 8.5t8 10.5q6 6 6 10t-6 7.5t-13 3.5q-24 0 -39.5 -26t-15.5 -67q0 -25 3 -56.5t11 -82.5
q17 -116 25.5 -234t8.5 -235q0 -170 -33.5 -250t-103.5 -80q-34 0 -56.5 22t-22.5 56q0 24 13.5 39t36.5 15q20 0 35 -14.5t15 -34.5q0 -8 -8 -25l-3 -8q0 -7 6 -7q15 0 34 17q24 21 24 62v5q0 3 1 9q1 7 1 11v12z" />
    <glyph glyph-name="approxequal" unicode="&#x2248;" horiz-adv-x="525" 
d="M480 217q-20 -33 -36.5 -55t-32.5 -35.5t-31.5 -19t-34.5 -5.5q-23 0 -46 9t-61 35q-26 17 -37.5 23t-20.5 6q-8 0 -18.5 -15t-28.5 -52l-89 68q4 6 6.5 10t7.5 15q16 28 29.5 46t27 29t28.5 15.5t34 4.5q24 0 47 -9t61 -35q26 -17 37.5 -23t20.5 -6q8 0 18.5 13t25.5 42
q1 4 3 7zM480 429q-20 -33 -36.5 -55t-32.5 -35.5t-31.5 -19t-34.5 -5.5q-23 0 -46 9t-61 35q-26 17 -37.5 23t-20.5 6q-8 0 -18.5 -15t-28.5 -52l-89 68q4 6 6.5 10t7.5 15q16 28 29.5 46t27 29t28.5 15.5t34 4.5q24 0 47 -9t61 -35q26 -17 37.5 -23t20.5 -6q8 0 18.5 13
t25.5 42q1 4 3 7z" />
    <glyph glyph-name="notequal" unicode="&#x2260;" horiz-adv-x="525" 
d="M228 150l-71 -124h-107l71 124h-71v113h135l48 84h-183v113h247l71 125h107l-71 -125h71v-113h-135l-48 -84h183v-113h-247z" />
    <glyph glyph-name="lessequal" unicode="&#x2264;" horiz-adv-x="525" 
d="M50 -81v113h425v-113h-425zM50 335v59l425 275v-139l-254 -165l254 -165v-139z" />
    <glyph glyph-name="greaterequal" unicode="&#x2265;" horiz-adv-x="525" 
d="M50 -81v113h425v-113h-425zM50 61v139l254 165l-254 165v139l425 -275v-59z" />
    <glyph glyph-name="lozenge" unicode="&#x25ca;" horiz-adv-x="667" 
d="M334 526l-140 -192l140 -193l140 193zM334 -48l-276 382l276 381l275 -381z" />
    <glyph glyph-name="uniFB01" unicode="&#xfb01;" horiz-adv-x="691" 
d="M272 323v-191h40v-132h-284v132h40v191h-40v132h40v10q0 33 3 53q7 45 20.5 77t36 52t54.5 29t76 9q25 0 43 -2.5t35 -9.5v-132q-11 4 -19 4q-21 0 -33 -14t-12 -40v-36h64v-132h-64zM370 0v132h40v191h-40v132h244v-323h40v-132h-284zM512 667q21 0 39 -7t32 -19
t22 -28.5t8 -34.5q0 -19 -8 -36t-21.5 -29.5t-32 -19.5t-39.5 -7t-39.5 7t-32 19.5t-21 29t-7.5 35.5q0 38 29 64t71 26z" />
    <glyph glyph-name="uniFB02" unicode="&#xfb02;" horiz-adv-x="683" 
d="M272 323v-191h40v-132h-284v132h40v191h-40v132h40v10q0 33 3 53q7 45 20.5 77t36 52t54.5 29t76 9q25 0 43 -2.5t35 -9.5v-132q-11 4 -19 4q-21 0 -33 -14t-12 -40v-36h64v-132h-64zM370 0v132h41v403h-41v132h245v-535h35v-132h-280z" />
  </font>
</defs>
</svg>
